<?xml version="1.0" encoding="UTF-8" standalone="no"?>
<!DOCTYPE svg PUBLIC "-//W3C//DTD SVG 1.1//EN"
 "http://www.w3.org/Graphics/SVG/1.1/DTD/svg11.dtd">
<!-- Generated by graphviz version 2.26.3 (20100126.1600)
 -->
<!-- Title: controllers_diagram Pages: 1 -->
<svg width="961pt" height="863pt"
 viewBox="0.00 0.00 961.00 863.00" xmlns="http://www.w3.org/2000/svg" xmlns:xlink="http://www.w3.org/1999/xlink">
<g id="graph1" class="graph" transform="scale(1 1) rotate(0) translate(4 859)">
<title>controllers_diagram</title>
<polygon fill="white" stroke="white" points="-4,5 -4,-859 958,-859 958,5 -4,5"/>
<!-- _diagram_info -->
<g id="node1" class="node"><title>_diagram_info</title>
<text text-anchor="start" x="229" y="-826.3" font-family="Times Roman,serif" font-size="13.00">Controllers diagram</text>
<text text-anchor="start" x="229" y="-809.3" font-family="Times Roman,serif" font-size="13.00">Date: May 13 2012 &#45; 16:57</text>
<text text-anchor="start" x="229" y="-792.3" font-family="Times Roman,serif" font-size="13.00">Migration version: 20120513135320</text>
<text text-anchor="start" x="229" y="-775.3" font-family="Times Roman,serif" font-size="13.00">Generated by RailRoady 1.0.7</text>
<text text-anchor="start" x="229" y="-758.3" font-family="Times Roman,serif" font-size="13.00">http://railroady.prestonlee.com</text>
</g>
<!-- StatisticsController -->
<g id="node2" class="node"><title>StatisticsController</title>
<polyline fill="none" stroke="black" points="233,-199.5 456,-199.5 "/>
<path fill="none" stroke="black" d="M456,-199.5C462,-199.5 468,-205.5 468,-211.5"/>
<polyline fill="none" stroke="black" points="468,-211.5 468,-451.5 "/>
<path fill="none" stroke="black" d="M468,-451.5C468,-457.5 462,-463.5 456,-463.5"/>
<polyline fill="none" stroke="black" points="456,-463.5 233,-463.5 "/>
<path fill="none" stroke="black" d="M233,-463.5C227,-463.5 221,-457.5 221,-451.5"/>
<polyline fill="none" stroke="black" points="221,-451.5 221,-211.5 "/>
<path fill="none" stroke="black" d="M221,-211.5C221,-205.5 227,-199.5 233,-199.5"/>
<text text-anchor="middle" x="344.5" y="-446.9" font-family="Times Roman,serif" font-size="14.00">StatisticsController</text>
<polyline fill="none" stroke="black" points="221,-437.5 468,-437.5 "/>
<text text-anchor="start" x="229" y="-420.9" font-family="Times Roman,serif" font-size="14.00">_callback_before_609</text>
<text text-anchor="start" x="229" y="-402.9" font-family="Times Roman,serif" font-size="14.00">_one_time_conditions_valid_608?</text>
<text text-anchor="start" x="229" y="-384.9" font-family="Times Roman,serif" font-size="14.00">_one_time_conditions_valid_610?</text>
<text text-anchor="start" x="229" y="-366.9" font-family="Times Roman,serif" font-size="14.00">courses</text>
<text text-anchor="start" x="229" y="-348.9" font-family="Times Roman,serif" font-size="14.00">failed</text>
<text text-anchor="start" x="229" y="-330.9" font-family="Times Roman,serif" font-size="14.00">index</text>
<text text-anchor="start" x="229" y="-312.9" font-family="Times Roman,serif" font-size="14.00">new_courses</text>
<text text-anchor="start" x="229" y="-294.9" font-family="Times Roman,serif" font-size="14.00">passed</text>
<text text-anchor="start" x="229" y="-276.9" font-family="Times Roman,serif" font-size="14.00">questions</text>
<text text-anchor="start" x="229" y="-258.9" font-family="Times Roman,serif" font-size="14.00">testings</text>
<polyline fill="none" stroke="black" points="221,-249.5 468,-249.5 "/>
<polyline fill="none" stroke="black" points="221,-225.5 468,-225.5 "/>
<text text-anchor="start" x="229" y="-208.9" font-family="Times Roman,serif" font-size="14.00">_layout</text>
</g>
<!-- DocumentsController -->
<g id="node3" class="node"><title>DocumentsController</title>
<polyline fill="none" stroke="black" points="35,-529.5 175,-529.5 "/>
<path fill="none" stroke="black" d="M175,-529.5C181,-529.5 187,-535.5 187,-541.5"/>
<polyline fill="none" stroke="black" points="187,-541.5 187,-619.5 "/>
<path fill="none" stroke="black" d="M187,-619.5C187,-625.5 181,-631.5 175,-631.5"/>
<polyline fill="none" stroke="black" points="175,-631.5 35,-631.5 "/>
<path fill="none" stroke="black" d="M35,-631.5C29,-631.5 23,-625.5 23,-619.5"/>
<polyline fill="none" stroke="black" points="23,-619.5 23,-541.5 "/>
<path fill="none" stroke="black" d="M23,-541.5C23,-535.5 29,-529.5 35,-529.5"/>
<text text-anchor="middle" x="105" y="-614.9" font-family="Times Roman,serif" font-size="14.00">DocumentsController</text>
<polyline fill="none" stroke="black" points="23,-605.5 187,-605.5 "/>
<text text-anchor="start" x="31" y="-588.9" font-family="Times Roman,serif" font-size="14.00">show</text>
<polyline fill="none" stroke="black" points="23,-579.5 187,-579.5 "/>
<polyline fill="none" stroke="black" points="23,-555.5 187,-555.5 "/>
<text text-anchor="start" x="31" y="-538.9" font-family="Times Roman,serif" font-size="14.00">_layout</text>
</g>
<!-- ApplicationController -->
<g id="node4" class="node"><title>ApplicationController</title>
<polyline fill="none" stroke="black" points="651,-23.5 874,-23.5 "/>
<path fill="none" stroke="black" d="M874,-23.5C880,-23.5 886,-29.5 886,-35.5"/>
<polyline fill="none" stroke="black" points="886,-35.5 886,-131.5 "/>
<path fill="none" stroke="black" d="M886,-131.5C886,-137.5 880,-143.5 874,-143.5"/>
<polyline fill="none" stroke="black" points="874,-143.5 651,-143.5 "/>
<path fill="none" stroke="black" d="M651,-143.5C645,-143.5 639,-137.5 639,-131.5"/>
<polyline fill="none" stroke="black" points="639,-131.5 639,-35.5 "/>
<path fill="none" stroke="black" d="M639,-35.5C639,-29.5 645,-23.5 651,-23.5"/>
<text text-anchor="middle" x="762.5" y="-126.9" font-family="Times Roman,serif" font-size="14.00">ApplicationController</text>
<polyline fill="none" stroke="black" points="639,-117.5 886,-117.5 "/>
<text text-anchor="start" x="647" y="-100.9" font-family="Times Roman,serif" font-size="14.00">_one_time_conditions_valid_606?</text>
<text text-anchor="start" x="647" y="-82.9" font-family="Times Roman,serif" font-size="14.00">yt_client</text>
<polyline fill="none" stroke="black" points="639,-73.5 886,-73.5 "/>
<polyline fill="none" stroke="black" points="639,-49.5 886,-49.5 "/>
<text text-anchor="start" x="647" y="-32.9" font-family="Times Roman,serif" font-size="14.00">_layout</text>
</g>
<!-- HomeController -->
<g id="node5" class="node"><title>HomeController</title>
<polyline fill="none" stroke="black" points="805,-177.5 906,-177.5 "/>
<path fill="none" stroke="black" d="M906,-177.5C912,-177.5 918,-183.5 918,-189.5"/>
<polyline fill="none" stroke="black" points="918,-189.5 918,-267.5 "/>
<path fill="none" stroke="black" d="M918,-267.5C918,-273.5 912,-279.5 906,-279.5"/>
<polyline fill="none" stroke="black" points="906,-279.5 805,-279.5 "/>
<path fill="none" stroke="black" d="M805,-279.5C799,-279.5 793,-273.5 793,-267.5"/>
<polyline fill="none" stroke="black" points="793,-267.5 793,-189.5 "/>
<path fill="none" stroke="black" d="M793,-189.5C793,-183.5 799,-177.5 805,-177.5"/>
<text text-anchor="middle" x="855.5" y="-262.9" font-family="Times Roman,serif" font-size="14.00">HomeController</text>
<polyline fill="none" stroke="black" points="793,-253.5 918,-253.5 "/>
<text text-anchor="start" x="801" y="-236.9" font-family="Times Roman,serif" font-size="14.00">index</text>
<polyline fill="none" stroke="black" points="793,-227.5 918,-227.5 "/>
<polyline fill="none" stroke="black" points="793,-203.5 918,-203.5 "/>
<text text-anchor="start" x="801" y="-186.9" font-family="Times Roman,serif" font-size="14.00">_layout</text>
</g>
<!-- CoursesController -->
<g id="node6" class="node"><title>CoursesController</title>
<polyline fill="none" stroke="black" points="519,-177.5 742,-177.5 "/>
<path fill="none" stroke="black" d="M742,-177.5C748,-177.5 754,-183.5 754,-189.5"/>
<polyline fill="none" stroke="black" points="754,-189.5 754,-375.5 "/>
<path fill="none" stroke="black" d="M754,-375.5C754,-381.5 748,-387.5 742,-387.5"/>
<polyline fill="none" stroke="black" points="742,-387.5 519,-387.5 "/>
<path fill="none" stroke="black" d="M519,-387.5C513,-387.5 507,-381.5 507,-375.5"/>
<polyline fill="none" stroke="black" points="507,-375.5 507,-189.5 "/>
<path fill="none" stroke="black" d="M507,-189.5C507,-183.5 513,-177.5 519,-177.5"/>
<text text-anchor="middle" x="630.5" y="-370.9" font-family="Times Roman,serif" font-size="14.00">CoursesController</text>
<polyline fill="none" stroke="black" points="507,-361.5 754,-361.5 "/>
<text text-anchor="start" x="515" y="-344.9" font-family="Times Roman,serif" font-size="14.00">_callback_before_613</text>
<text text-anchor="start" x="515" y="-326.9" font-family="Times Roman,serif" font-size="14.00">_one_time_conditions_valid_612?</text>
<text text-anchor="start" x="515" y="-308.9" font-family="Times Roman,serif" font-size="14.00">_one_time_conditions_valid_614?</text>
<text text-anchor="start" x="515" y="-290.9" font-family="Times Roman,serif" font-size="14.00">index</text>
<text text-anchor="start" x="515" y="-272.9" font-family="Times Roman,serif" font-size="14.00">load_categories</text>
<text text-anchor="start" x="515" y="-254.9" font-family="Times Roman,serif" font-size="14.00">search</text>
<text text-anchor="start" x="515" y="-236.9" font-family="Times Roman,serif" font-size="14.00">show</text>
<polyline fill="none" stroke="black" points="507,-227.5 754,-227.5 "/>
<polyline fill="none" stroke="black" points="507,-203.5 754,-203.5 "/>
<text text-anchor="start" x="515" y="-186.9" font-family="Times Roman,serif" font-size="14.00">_layout</text>
</g>
<!-- StudentsController -->
<g id="node7" class="node"><title>StudentsController</title>
<polyline fill="none" stroke="black" points="233,-507.5 456,-507.5 "/>
<path fill="none" stroke="black" d="M456,-507.5C462,-507.5 468,-513.5 468,-519.5"/>
<polyline fill="none" stroke="black" points="468,-519.5 468,-687.5 "/>
<path fill="none" stroke="black" d="M468,-687.5C468,-693.5 462,-699.5 456,-699.5"/>
<polyline fill="none" stroke="black" points="456,-699.5 233,-699.5 "/>
<path fill="none" stroke="black" d="M233,-699.5C227,-699.5 221,-693.5 221,-687.5"/>
<polyline fill="none" stroke="black" points="221,-687.5 221,-519.5 "/>
<path fill="none" stroke="black" d="M221,-519.5C221,-513.5 227,-507.5 233,-507.5"/>
<text text-anchor="middle" x="344.5" y="-682.9" font-family="Times Roman,serif" font-size="14.00">StudentsController</text>
<polyline fill="none" stroke="black" points="221,-673.5 468,-673.5 "/>
<text text-anchor="start" x="229" y="-656.9" font-family="Times Roman,serif" font-size="14.00">_callback_before_615</text>
<text text-anchor="start" x="229" y="-638.9" font-family="Times Roman,serif" font-size="14.00">_callback_before_617</text>
<text text-anchor="start" x="229" y="-620.9" font-family="Times Roman,serif" font-size="14.00">_one_time_conditions_valid_616?</text>
<text text-anchor="start" x="229" y="-602.9" font-family="Times Roman,serif" font-size="14.00">_one_time_conditions_valid_618?</text>
<text text-anchor="start" x="229" y="-584.9" font-family="Times Roman,serif" font-size="14.00">index</text>
<text text-anchor="start" x="229" y="-566.9" font-family="Times Roman,serif" font-size="14.00">show</text>
<polyline fill="none" stroke="black" points="221,-557.5 468,-557.5 "/>
<polyline fill="none" stroke="black" points="221,-533.5 468,-533.5 "/>
<text text-anchor="start" x="229" y="-516.9" font-family="Times Roman,serif" font-size="14.00">_layout</text>
</g>
<!-- StudyRoomsController -->
<g id="node8" class="node"><title>StudyRoomsController</title>
<polyline fill="none" stroke="black" points="13,-375.5 160,-375.5 "/>
<path fill="none" stroke="black" d="M160,-375.5C166,-375.5 172,-381.5 172,-387.5"/>
<polyline fill="none" stroke="black" points="172,-387.5 172,-465.5 "/>
<path fill="none" stroke="black" d="M172,-465.5C172,-471.5 166,-477.5 160,-477.5"/>
<polyline fill="none" stroke="black" points="160,-477.5 13,-477.5 "/>
<path fill="none" stroke="black" d="M13,-477.5C7,-477.5 1,-471.5 1,-465.5"/>
<polyline fill="none" stroke="black" points="1,-465.5 1,-387.5 "/>
<path fill="none" stroke="black" d="M1,-387.5C1,-381.5 7,-375.5 13,-375.5"/>
<text text-anchor="middle" x="86.5" y="-460.9" font-family="Times Roman,serif" font-size="14.00">StudyRoomsController</text>
<polyline fill="none" stroke="black" points="1,-451.5 172,-451.5 "/>
<text text-anchor="start" x="9" y="-434.9" font-family="Times Roman,serif" font-size="14.00">index</text>
<polyline fill="none" stroke="black" points="1,-425.5 172,-425.5 "/>
<polyline fill="none" stroke="black" points="1,-401.5 172,-401.5 "/>
<text text-anchor="start" x="9" y="-384.9" font-family="Times Roman,serif" font-size="14.00">_layout</text>
</g>
<!-- TeachersController -->
<g id="node9" class="node"><title>TeachersController</title>
<polyline fill="none" stroke="black" points="35,-1.5 258,-1.5 "/>
<path fill="none" stroke="black" d="M258,-1.5C264,-1.5 270,-7.5 270,-13.5"/>
<polyline fill="none" stroke="black" points="270,-13.5 270,-145.5 "/>
<path fill="none" stroke="black" d="M270,-145.5C270,-151.5 264,-157.5 258,-157.5"/>
<polyline fill="none" stroke="black" points="258,-157.5 35,-157.5 "/>
<path fill="none" stroke="black" d="M35,-157.5C29,-157.5 23,-151.5 23,-145.5"/>
<polyline fill="none" stroke="black" points="23,-145.5 23,-13.5 "/>
<path fill="none" stroke="black" d="M23,-13.5C23,-7.5 29,-1.5 35,-1.5"/>
<text text-anchor="middle" x="146.5" y="-140.9" font-family="Times Roman,serif" font-size="14.00">TeachersController</text>
<polyline fill="none" stroke="black" points="23,-131.5 270,-131.5 "/>
<text text-anchor="start" x="31" y="-114.9" font-family="Times Roman,serif" font-size="14.00">_callback_before_619</text>
<text text-anchor="start" x="31" y="-96.9" font-family="Times Roman,serif" font-size="14.00">_one_time_conditions_valid_620?</text>
<text text-anchor="start" x="31" y="-78.9" font-family="Times Roman,serif" font-size="14.00">index</text>
<text text-anchor="start" x="31" y="-60.9" font-family="Times Roman,serif" font-size="14.00">students</text>
<polyline fill="none" stroke="black" points="23,-51.5 270,-51.5 "/>
<polyline fill="none" stroke="black" points="23,-27.5 270,-27.5 "/>
<text text-anchor="start" x="31" y="-10.9" font-family="Times Roman,serif" font-size="14.00">_layout</text>
</g>
<!-- CategoriesController -->
<g id="node10" class="node"><title>CategoriesController</title>
<polyline fill="none" stroke="black" points="365,-1.5 588,-1.5 "/>
<path fill="none" stroke="black" d="M588,-1.5C594,-1.5 600,-7.5 600,-13.5"/>
<polyline fill="none" stroke="black" points="600,-13.5 600,-127.5 "/>
<path fill="none" stroke="black" d="M600,-127.5C600,-133.5 594,-139.5 588,-139.5"/>
<polyline fill="none" stroke="black" points="588,-139.5 365,-139.5 "/>
<path fill="none" stroke="black" d="M365,-139.5C359,-139.5 353,-133.5 353,-127.5"/>
<polyline fill="none" stroke="black" points="353,-127.5 353,-13.5 "/>
<path fill="none" stroke="black" d="M353,-13.5C353,-7.5 359,-1.5 365,-1.5"/>
<text text-anchor="middle" x="476.5" y="-122.9" font-family="Times Roman,serif" font-size="14.00">CategoriesController</text>
<polyline fill="none" stroke="black" points="353,-113.5 600,-113.5 "/>
<text text-anchor="start" x="361" y="-96.9" font-family="Times Roman,serif" font-size="14.00">_callback_before_621</text>
<text text-anchor="start" x="361" y="-78.9" font-family="Times Roman,serif" font-size="14.00">_one_time_conditions_valid_622?</text>
<text text-anchor="start" x="361" y="-60.9" font-family="Times Roman,serif" font-size="14.00">show</text>
<polyline fill="none" stroke="black" points="353,-51.5 600,-51.5 "/>
<polyline fill="none" stroke="black" points="353,-27.5 600,-27.5 "/>
<text text-anchor="start" x="361" y="-10.9" font-family="Times Roman,serif" font-size="14.00">_layout</text>
</g>
<!-- StudyRoomController -->
<g id="node11" class="node"><title>StudyRoomController</title>
<polyline fill="none" stroke="black" points="35,-221.5 175,-221.5 "/>
<path fill="none" stroke="black" d="M175,-221.5C181,-221.5 187,-227.5 187,-233.5"/>
<polyline fill="none" stroke="black" points="187,-233.5 187,-309.5 "/>
<path fill="none" stroke="black" d="M187,-309.5C187,-315.5 181,-321.5 175,-321.5"/>
<polyline fill="none" stroke="black" points="175,-321.5 35,-321.5 "/>
<path fill="none" stroke="black" d="M35,-321.5C29,-321.5 23,-315.5 23,-309.5"/>
<polyline fill="none" stroke="black" points="23,-309.5 23,-233.5 "/>
<path fill="none" stroke="black" d="M23,-233.5C23,-227.5 29,-221.5 35,-221.5"/>
<text text-anchor="middle" x="105" y="-304.9" font-family="Times Roman,serif" font-size="14.00">StudyRoomController</text>
<polyline fill="none" stroke="black" points="23,-295.5 187,-295.5 "/>
<polyline fill="none" stroke="black" points="23,-271.5 187,-271.5 "/>
<polyline fill="none" stroke="black" points="23,-247.5 187,-247.5 "/>
<text text-anchor="start" x="31" y="-230.9" font-family="Times Roman,serif" font-size="14.00">_layout</text>
</g>
<!-- VideosController -->
<g id="node12" class="node"><title>VideosController</title>
<polyline fill="none" stroke="black" points="519,-419.5 647,-419.5 "/>
<path fill="none" stroke="black" d="M647,-419.5C653,-419.5 659,-425.5 659,-431.5"/>
<polyline fill="none" stroke="black" points="659,-431.5 659,-727.5 "/>
<path fill="none" stroke="black" d="M659,-727.5C659,-733.5 653,-739.5 647,-739.5"/>
<polyline fill="none" stroke="black" points="647,-739.5 519,-739.5 "/>
<path fill="none" stroke="black" d="M519,-739.5C513,-739.5 507,-733.5 507,-727.5"/>
<polyline fill="none" stroke="black" points="507,-727.5 507,-431.5 "/>
<path fill="none" stroke="black" d="M507,-431.5C507,-425.5 513,-419.5 519,-419.5"/>
<text text-anchor="middle" x="583" y="-722.9" font-family="Times Roman,serif" font-size="14.00">VideosController</text>
<polyline fill="none" stroke="black" points="507,-713.5 659,-713.5 "/>
<text text-anchor="start" x="515" y="-696.9" font-family="Times Roman,serif" font-size="14.00">add_comment</text>
<text text-anchor="start" x="515" y="-678.9" font-family="Times Roman,serif" font-size="14.00">destroy</text>
<text text-anchor="start" x="515" y="-660.9" font-family="Times Roman,serif" font-size="14.00">save_video</text>
<text text-anchor="start" x="515" y="-642.9" font-family="Times Roman,serif" font-size="14.00">update</text>
<text text-anchor="start" x="515" y="-624.9" font-family="Times Roman,serif" font-size="14.00">upload</text>
<polyline fill="none" stroke="black" points="507,-615.5 659,-615.5 "/>
<text text-anchor="start" x="515" y="-598.9" font-family="Times Roman,serif" font-size="14.00">collection</text>
<text text-anchor="start" x="515" y="-580.9" font-family="Times Roman,serif" font-size="14.00">collection_path</text>
<text text-anchor="start" x="515" y="-562.9" font-family="Times Roman,serif" font-size="14.00">collection_url</text>
<text text-anchor="start" x="515" y="-544.9" font-family="Times Roman,serif" font-size="14.00">edit_resource_path</text>
<text text-anchor="start" x="515" y="-526.9" font-family="Times Roman,serif" font-size="14.00">edit_resource_url</text>
<text text-anchor="start" x="515" y="-508.9" font-family="Times Roman,serif" font-size="14.00">new_resource_path</text>
<text text-anchor="start" x="515" y="-490.9" font-family="Times Roman,serif" font-size="14.00">new_resource_url</text>
<text text-anchor="start" x="515" y="-472.9" font-family="Times Roman,serif" font-size="14.00">resource_path</text>
<text text-anchor="start" x="515" y="-454.9" font-family="Times Roman,serif" font-size="14.00">resource_url</text>
<polyline fill="none" stroke="black" points="507,-445.5 659,-445.5 "/>
<text text-anchor="start" x="515" y="-428.9" font-family="Times Roman,serif" font-size="14.00">_layout</text>
</g>
<!-- LessonsController -->
<g id="node13" class="node"><title>LessonsController</title>
<polyline fill="none" stroke="black" points="717,-419.5 940,-419.5 "/>
<path fill="none" stroke="black" d="M940,-419.5C946,-419.5 952,-425.5 952,-431.5"/>
<polyline fill="none" stroke="black" points="952,-431.5 952,-599.5 "/>
<path fill="none" stroke="black" d="M952,-599.5C952,-605.5 946,-611.5 940,-611.5"/>
<polyline fill="none" stroke="black" points="940,-611.5 717,-611.5 "/>
<path fill="none" stroke="black" d="M717,-611.5C711,-611.5 705,-605.5 705,-599.5"/>
<polyline fill="none" stroke="black" points="705,-599.5 705,-431.5 "/>
<path fill="none" stroke="black" d="M705,-431.5C705,-425.5 711,-419.5 717,-419.5"/>
<text text-anchor="middle" x="828.5" y="-594.9" font-family="Times Roman,serif" font-size="14.00">LessonsController</text>
<polyline fill="none" stroke="black" points="705,-585.5 952,-585.5 "/>
<text text-anchor="start" x="713" y="-568.9" font-family="Times Roman,serif" font-size="14.00">_one_time_conditions_valid_624?</text>
<text text-anchor="start" x="713" y="-550.9" font-family="Times Roman,serif" font-size="14.00">documents</text>
<text text-anchor="start" x="713" y="-532.9" font-family="Times Roman,serif" font-size="14.00">load_course</text>
<text text-anchor="start" x="713" y="-514.9" font-family="Times Roman,serif" font-size="14.00">show</text>
<text text-anchor="start" x="713" y="-496.9" font-family="Times Roman,serif" font-size="14.00">tests</text>
<text text-anchor="start" x="713" y="-478.9" font-family="Times Roman,serif" font-size="14.00">videos</text>
<polyline fill="none" stroke="black" points="705,-469.5 952,-469.5 "/>
<polyline fill="none" stroke="black" points="705,-445.5 952,-445.5 "/>
<text text-anchor="start" x="713" y="-428.9" font-family="Times Roman,serif" font-size="14.00">_layout</text>
</g>
<!-- UserCoursesController -->
<g id="node14" class="node"><title>UserCoursesController</title>
<polyline fill="none" stroke="black" points="13,-683.5 161,-683.5 "/>
<path fill="none" stroke="black" d="M161,-683.5C167,-683.5 173,-689.5 173,-695.5"/>
<polyline fill="none" stroke="black" points="173,-695.5 173,-809.5 "/>
<path fill="none" stroke="black" d="M173,-809.5C173,-815.5 167,-821.5 161,-821.5"/>
<polyline fill="none" stroke="black" points="161,-821.5 13,-821.5 "/>
<path fill="none" stroke="black" d="M13,-821.5C7,-821.5 1,-815.5 1,-809.5"/>
<polyline fill="none" stroke="black" points="1,-809.5 1,-695.5 "/>
<path fill="none" stroke="black" d="M1,-695.5C1,-689.5 7,-683.5 13,-683.5"/>
<text text-anchor="middle" x="87" y="-804.9" font-family="Times Roman,serif" font-size="14.00">UserCoursesController</text>
<polyline fill="none" stroke="black" points="1,-795.5 173,-795.5 "/>
<text text-anchor="start" x="9" y="-778.9" font-family="Times Roman,serif" font-size="14.00">bulk</text>
<text text-anchor="start" x="9" y="-760.9" font-family="Times Roman,serif" font-size="14.00">create</text>
<text text-anchor="start" x="9" y="-742.9" font-family="Times Roman,serif" font-size="14.00">destroy</text>
<polyline fill="none" stroke="black" points="1,-733.5 173,-733.5 "/>
<polyline fill="none" stroke="black" points="1,-709.5 173,-709.5 "/>
<text text-anchor="start" x="9" y="-692.9" font-family="Times Roman,serif" font-size="14.00">_layout</text>
</g>
<!-- TestingsController -->
<g id="node15" class="node"><title>TestingsController</title>
<polyline fill="none" stroke="black" points="717,-661.5 940,-661.5 "/>
<path fill="none" stroke="black" d="M940,-661.5C946,-661.5 952,-667.5 952,-673.5"/>
<polyline fill="none" stroke="black" points="952,-673.5 952,-841.5 "/>
<path fill="none" stroke="black" d="M952,-841.5C952,-847.5 946,-853.5 940,-853.5"/>
<polyline fill="none" stroke="black" points="940,-853.5 717,-853.5 "/>
<path fill="none" stroke="black" d="M717,-853.5C711,-853.5 705,-847.5 705,-841.5"/>
<polyline fill="none" stroke="black" points="705,-841.5 705,-673.5 "/>
<path fill="none" stroke="black" d="M705,-673.5C705,-667.5 711,-661.5 717,-661.5"/>
<text text-anchor="middle" x="828.5" y="-836.9" font-family="Times Roman,serif" font-size="14.00">TestingsController</text>
<polyline fill="none" stroke="black" points="705,-827.5 952,-827.5 "/>
<text text-anchor="start" x="713" y="-810.9" font-family="Times Roman,serif" font-size="14.00">_one_time_conditions_valid_626?</text>
<text text-anchor="start" x="713" y="-792.9" font-family="Times Roman,serif" font-size="14.00">_one_time_conditions_valid_628?</text>
<text text-anchor="start" x="713" y="-774.9" font-family="Times Roman,serif" font-size="14.00">load_instance</text>
<text text-anchor="start" x="713" y="-756.9" font-family="Times Roman,serif" font-size="14.00">next</text>
<text text-anchor="start" x="713" y="-738.9" font-family="Times Roman,serif" font-size="14.00">results</text>
<text text-anchor="start" x="713" y="-720.9" font-family="Times Roman,serif" font-size="14.00">show</text>
<polyline fill="none" stroke="black" points="705,-711.5 952,-711.5 "/>
<polyline fill="none" stroke="black" points="705,-687.5 952,-687.5 "/>
<text text-anchor="start" x="713" y="-670.9" font-family="Times Roman,serif" font-size="14.00">_layout</text>
</g>
</g>
</svg>
