<?xml version="1.0" encoding="UTF-8" standalone="no"?>
<!DOCTYPE svg PUBLIC "-//W3C//DTD SVG 1.1//EN"
 "http://www.w3.org/Graphics/SVG/1.1/DTD/svg11.dtd">
<!-- Generated by graphviz version 2.28.0 (20120603.1621)
 -->
<!-- Title: controllers_diagram Pages: 1 -->
<svg width="925pt" height="907pt"
 viewBox="0.00 0.00 925.31 907.40" xmlns="http://www.w3.org/2000/svg" xmlns:xlink="http://www.w3.org/1999/xlink">
<g id="graph1" class="graph" transform="scale(1 1) rotate(0) translate(4 903.4)">
<title>controllers_diagram</title>
<polygon fill="white" stroke="white" points="-4,5 -4,-903.4 922.311,-903.4 922.311,5 -4,5"/>
<!-- _diagram_info -->
<g id="node1" class="node"><title>_diagram_info</title>
<text text-anchor="start" x="8" y="-729" font-family="Times,serif" font-size="13.00">Controllers diagram</text>
<text text-anchor="start" x="8" y="-713.4" font-family="Times,serif" font-size="13.00">Date: Jun 03 2012 &#45; 19:31</text>
<text text-anchor="start" x="8" y="-697.8" font-family="Times,serif" font-size="13.00">Migration version: 20120513135320</text>
<text text-anchor="start" x="8" y="-682.2" font-family="Times,serif" font-size="13.00">Generated by RailRoady 1.0.7</text>
<text text-anchor="start" x="8" y="-666.6" font-family="Times,serif" font-size="13.00">http://railroady.prestonlee.com</text>
</g>
<!-- ApplicationController -->
<g id="node2" class="node"><title>ApplicationController</title>
<polyline fill="none" stroke="black" points="12,-780.5 197.635,-780.5 "/>
<path fill="none" stroke="black" d="M197.635,-780.5C203.635,-780.5 209.635,-786.5 209.635,-792.5"/>
<polyline fill="none" stroke="black" points="209.635,-792.5 209.635,-883.7 "/>
<path fill="none" stroke="black" d="M209.635,-883.7C209.635,-889.7 203.635,-895.7 197.635,-895.7"/>
<polyline fill="none" stroke="black" points="197.635,-895.7 12,-895.7 "/>
<path fill="none" stroke="black" d="M12,-895.7C6,-895.7 0,-889.7 0,-883.7"/>
<polyline fill="none" stroke="black" points="0,-883.7 0,-792.5 "/>
<path fill="none" stroke="black" d="M0,-792.5C0,-786.5 6,-780.5 12,-780.5"/>
<text text-anchor="middle" x="104.817" y="-877.7" font-family="Times,serif" font-size="14.00">ApplicationController</text>
<polyline fill="none" stroke="black" points="0,-870.9 209.635,-870.9 "/>
<text text-anchor="start" x="8" y="-852.9" font-family="Times,serif" font-size="14.00">_one_time_conditions_valid_606?</text>
<text text-anchor="start" x="8" y="-836.1" font-family="Times,serif" font-size="14.00">yt_client</text>
<polyline fill="none" stroke="black" points="0,-829.3 209.635,-829.3 "/>
<polyline fill="none" stroke="black" points="0,-805.3 209.635,-805.3 "/>
<text text-anchor="start" x="8" y="-787.3" font-family="Times,serif" font-size="14.00">_layout</text>
</g>
<!-- CategoriesController -->
<g id="node3" class="node"><title>CategoriesController</title>
<polyline fill="none" stroke="black" points="52,-100.5 237.635,-100.5 "/>
<path fill="none" stroke="black" d="M237.635,-100.5C243.635,-100.5 249.635,-106.5 249.635,-112.5"/>
<polyline fill="none" stroke="black" points="249.635,-112.5 249.635,-220.5 "/>
<path fill="none" stroke="black" d="M249.635,-220.5C249.635,-226.5 243.635,-232.5 237.635,-232.5"/>
<polyline fill="none" stroke="black" points="237.635,-232.5 52,-232.5 "/>
<path fill="none" stroke="black" d="M52,-232.5C46,-232.5 40,-226.5 40,-220.5"/>
<polyline fill="none" stroke="black" points="40,-220.5 40,-112.5 "/>
<path fill="none" stroke="black" d="M40,-112.5C40,-106.5 46,-100.5 52,-100.5"/>
<text text-anchor="middle" x="144.817" y="-214.5" font-family="Times,serif" font-size="14.00">CategoriesController</text>
<polyline fill="none" stroke="black" points="40,-207.7 249.635,-207.7 "/>
<text text-anchor="start" x="48" y="-189.7" font-family="Times,serif" font-size="14.00">_callback_before_607</text>
<text text-anchor="start" x="48" y="-172.9" font-family="Times,serif" font-size="14.00">_one_time_conditions_valid_608?</text>
<text text-anchor="start" x="48" y="-156.1" font-family="Times,serif" font-size="14.00">show</text>
<polyline fill="none" stroke="black" points="40,-149.3 249.635,-149.3 "/>
<polyline fill="none" stroke="black" points="40,-125.3 249.635,-125.3 "/>
<text text-anchor="start" x="48" y="-107.3" font-family="Times,serif" font-size="14.00">_layout</text>
</g>
<!-- CoursesController -->
<g id="node4" class="node"><title>CoursesController</title>
<polyline fill="none" stroke="black" points="252,-560.5 437.635,-560.5 "/>
<path fill="none" stroke="black" d="M437.635,-560.5C443.635,-560.5 449.635,-566.5 449.635,-572.5"/>
<polyline fill="none" stroke="black" points="449.635,-572.5 449.635,-747.7 "/>
<path fill="none" stroke="black" d="M449.635,-747.7C449.635,-753.7 443.635,-759.7 437.635,-759.7"/>
<polyline fill="none" stroke="black" points="437.635,-759.7 252,-759.7 "/>
<path fill="none" stroke="black" d="M252,-759.7C246,-759.7 240,-753.7 240,-747.7"/>
<polyline fill="none" stroke="black" points="240,-747.7 240,-572.5 "/>
<path fill="none" stroke="black" d="M240,-572.5C240,-566.5 246,-560.5 252,-560.5"/>
<text text-anchor="middle" x="344.817" y="-741.7" font-family="Times,serif" font-size="14.00">CoursesController</text>
<polyline fill="none" stroke="black" points="240,-734.9 449.635,-734.9 "/>
<text text-anchor="start" x="248" y="-716.9" font-family="Times,serif" font-size="14.00">_callback_before_611</text>
<text text-anchor="start" x="248" y="-700.1" font-family="Times,serif" font-size="14.00">_one_time_conditions_valid_610?</text>
<text text-anchor="start" x="248" y="-683.3" font-family="Times,serif" font-size="14.00">_one_time_conditions_valid_612?</text>
<text text-anchor="start" x="248" y="-666.5" font-family="Times,serif" font-size="14.00">index</text>
<text text-anchor="start" x="248" y="-649.7" font-family="Times,serif" font-size="14.00">load_categories</text>
<text text-anchor="start" x="248" y="-632.9" font-family="Times,serif" font-size="14.00">search</text>
<text text-anchor="start" x="248" y="-616.1" font-family="Times,serif" font-size="14.00">show</text>
<polyline fill="none" stroke="black" points="240,-609.3 449.635,-609.3 "/>
<polyline fill="none" stroke="black" points="240,-585.3 449.635,-585.3 "/>
<text text-anchor="start" x="248" y="-567.3" font-family="Times,serif" font-size="14.00">_layout</text>
</g>
<!-- DocumentsController -->
<g id="node5" class="node"><title>DocumentsController</title>
<polyline fill="none" stroke="black" points="792,-0.5 905.311,-0.5 "/>
<path fill="none" stroke="black" d="M905.311,-0.5C911.311,-0.5 917.311,-6.5 917.311,-12.5"/>
<polyline fill="none" stroke="black" points="917.311,-12.5 917.311,-86.9 "/>
<path fill="none" stroke="black" d="M917.311,-86.9C917.311,-92.9 911.311,-98.9 905.311,-98.9"/>
<polyline fill="none" stroke="black" points="905.311,-98.9 792,-98.9 "/>
<path fill="none" stroke="black" d="M792,-98.9C786,-98.9 780,-92.9 780,-86.9"/>
<polyline fill="none" stroke="black" points="780,-86.9 780,-12.5 "/>
<path fill="none" stroke="black" d="M780,-12.5C780,-6.5 786,-0.5 792,-0.5"/>
<text text-anchor="middle" x="848.655" y="-80.9" font-family="Times,serif" font-size="14.00">DocumentsController</text>
<polyline fill="none" stroke="black" points="780,-74.1 917.311,-74.1 "/>
<text text-anchor="start" x="788" y="-56.1" font-family="Times,serif" font-size="14.00">show</text>
<polyline fill="none" stroke="black" points="780,-49.3 917.311,-49.3 "/>
<polyline fill="none" stroke="black" points="780,-25.3 917.311,-25.3 "/>
<text text-anchor="start" x="788" y="-7.3" font-family="Times,serif" font-size="14.00">_layout</text>
</g>
<!-- HomeController -->
<g id="node6" class="node"><title>HomeController</title>
<polyline fill="none" stroke="black" points="272,-800.5 355.759,-800.5 "/>
<path fill="none" stroke="black" d="M355.759,-800.5C361.759,-800.5 367.759,-806.5 367.759,-812.5"/>
<polyline fill="none" stroke="black" points="367.759,-812.5 367.759,-886.9 "/>
<path fill="none" stroke="black" d="M367.759,-886.9C367.759,-892.9 361.759,-898.9 355.759,-898.9"/>
<polyline fill="none" stroke="black" points="355.759,-898.9 272,-898.9 "/>
<path fill="none" stroke="black" d="M272,-898.9C266,-898.9 260,-892.9 260,-886.9"/>
<polyline fill="none" stroke="black" points="260,-886.9 260,-812.5 "/>
<path fill="none" stroke="black" d="M260,-812.5C260,-806.5 266,-800.5 272,-800.5"/>
<text text-anchor="middle" x="313.879" y="-880.9" font-family="Times,serif" font-size="14.00">HomeController</text>
<polyline fill="none" stroke="black" points="260,-874.1 367.759,-874.1 "/>
<text text-anchor="start" x="268" y="-856.1" font-family="Times,serif" font-size="14.00">index</text>
<polyline fill="none" stroke="black" points="260,-849.3 367.759,-849.3 "/>
<polyline fill="none" stroke="black" points="260,-825.3 367.759,-825.3 "/>
<text text-anchor="start" x="268" y="-807.3" font-family="Times,serif" font-size="14.00">_layout</text>
</g>
<!-- LessonsController -->
<g id="node7" class="node"><title>LessonsController</title>
<polyline fill="none" stroke="black" points="652,-360.5 837.635,-360.5 "/>
<path fill="none" stroke="black" d="M837.635,-360.5C843.635,-360.5 849.635,-366.5 849.635,-372.5"/>
<polyline fill="none" stroke="black" points="849.635,-372.5 849.635,-530.9 "/>
<path fill="none" stroke="black" d="M849.635,-530.9C849.635,-536.9 843.635,-542.9 837.635,-542.9"/>
<polyline fill="none" stroke="black" points="837.635,-542.9 652,-542.9 "/>
<path fill="none" stroke="black" d="M652,-542.9C646,-542.9 640,-536.9 640,-530.9"/>
<polyline fill="none" stroke="black" points="640,-530.9 640,-372.5 "/>
<path fill="none" stroke="black" d="M640,-372.5C640,-366.5 646,-360.5 652,-360.5"/>
<text text-anchor="middle" x="744.817" y="-524.9" font-family="Times,serif" font-size="14.00">LessonsController</text>
<polyline fill="none" stroke="black" points="640,-518.1 849.635,-518.1 "/>
<text text-anchor="start" x="648" y="-500.1" font-family="Times,serif" font-size="14.00">_one_time_conditions_valid_614?</text>
<text text-anchor="start" x="648" y="-483.3" font-family="Times,serif" font-size="14.00">documents</text>
<text text-anchor="start" x="648" y="-466.5" font-family="Times,serif" font-size="14.00">load_course</text>
<text text-anchor="start" x="648" y="-449.7" font-family="Times,serif" font-size="14.00">show</text>
<text text-anchor="start" x="648" y="-432.9" font-family="Times,serif" font-size="14.00">tests</text>
<text text-anchor="start" x="648" y="-416.1" font-family="Times,serif" font-size="14.00">videos</text>
<polyline fill="none" stroke="black" points="640,-409.3 849.635,-409.3 "/>
<polyline fill="none" stroke="black" points="640,-385.3 849.635,-385.3 "/>
<text text-anchor="start" x="648" y="-367.3" font-family="Times,serif" font-size="14.00">_layout</text>
</g>
<!-- StatisticsController -->
<g id="node8" class="node"><title>StatisticsController</title>
<polyline fill="none" stroke="black" points="252,-280.5 437.635,-280.5 "/>
<path fill="none" stroke="black" d="M437.635,-280.5C443.635,-280.5 449.635,-286.5 449.635,-292.5"/>
<polyline fill="none" stroke="black" points="449.635,-292.5 449.635,-518.1 "/>
<path fill="none" stroke="black" d="M449.635,-518.1C449.635,-524.1 443.635,-530.1 437.635,-530.1"/>
<polyline fill="none" stroke="black" points="437.635,-530.1 252,-530.1 "/>
<path fill="none" stroke="black" d="M252,-530.1C246,-530.1 240,-524.1 240,-518.1"/>
<polyline fill="none" stroke="black" points="240,-518.1 240,-292.5 "/>
<path fill="none" stroke="black" d="M240,-292.5C240,-286.5 246,-280.5 252,-280.5"/>
<text text-anchor="middle" x="344.817" y="-512.1" font-family="Times,serif" font-size="14.00">StatisticsController</text>
<polyline fill="none" stroke="black" points="240,-505.3 449.635,-505.3 "/>
<text text-anchor="start" x="248" y="-487.3" font-family="Times,serif" font-size="14.00">_callback_before_617</text>
<text text-anchor="start" x="248" y="-470.5" font-family="Times,serif" font-size="14.00">_one_time_conditions_valid_616?</text>
<text text-anchor="start" x="248" y="-453.7" font-family="Times,serif" font-size="14.00">_one_time_conditions_valid_618?</text>
<text text-anchor="start" x="248" y="-436.9" font-family="Times,serif" font-size="14.00">courses</text>
<text text-anchor="start" x="248" y="-420.1" font-family="Times,serif" font-size="14.00">failed</text>
<text text-anchor="start" x="248" y="-403.3" font-family="Times,serif" font-size="14.00">index</text>
<text text-anchor="start" x="248" y="-386.5" font-family="Times,serif" font-size="14.00">new_courses</text>
<text text-anchor="start" x="248" y="-369.7" font-family="Times,serif" font-size="14.00">passed</text>
<text text-anchor="start" x="248" y="-352.9" font-family="Times,serif" font-size="14.00">questions</text>
<text text-anchor="start" x="248" y="-336.1" font-family="Times,serif" font-size="14.00">testings</text>
<polyline fill="none" stroke="black" points="240,-329.3 449.635,-329.3 "/>
<polyline fill="none" stroke="black" points="240,-305.3 449.635,-305.3 "/>
<text text-anchor="start" x="248" y="-287.3" font-family="Times,serif" font-size="14.00">_layout</text>
</g>
<!-- StudentGroupsController -->
<g id="node9" class="node"><title>StudentGroupsController</title>
<polyline fill="none" stroke="black" points="52,-320.5 185.545,-320.5 "/>
<path fill="none" stroke="black" d="M185.545,-320.5C191.545,-320.5 197.545,-326.5 197.545,-332.5"/>
<polyline fill="none" stroke="black" points="197.545,-332.5 197.545,-423.7 "/>
<path fill="none" stroke="black" d="M197.545,-423.7C197.545,-429.7 191.545,-435.7 185.545,-435.7"/>
<polyline fill="none" stroke="black" points="185.545,-435.7 52,-435.7 "/>
<path fill="none" stroke="black" d="M52,-435.7C46,-435.7 40,-429.7 40,-423.7"/>
<polyline fill="none" stroke="black" points="40,-423.7 40,-332.5 "/>
<path fill="none" stroke="black" d="M40,-332.5C40,-326.5 46,-320.5 52,-320.5"/>
<text text-anchor="middle" x="118.772" y="-417.7" font-family="Times,serif" font-size="14.00">StudentGroupsController</text>
<polyline fill="none" stroke="black" points="40,-410.9 197.545,-410.9 "/>
<text text-anchor="start" x="48" y="-392.9" font-family="Times,serif" font-size="14.00">index</text>
<text text-anchor="start" x="48" y="-376.1" font-family="Times,serif" font-size="14.00">show</text>
<polyline fill="none" stroke="black" points="40,-369.3 197.545,-369.3 "/>
<polyline fill="none" stroke="black" points="40,-345.3 197.545,-345.3 "/>
<text text-anchor="start" x="48" y="-327.3" font-family="Times,serif" font-size="14.00">_layout</text>
</g>
<!-- StudentsController -->
<g id="node10" class="node"><title>StudentsController</title>
<polyline fill="none" stroke="black" points="592,-640.5 777.635,-640.5 "/>
<path fill="none" stroke="black" d="M777.635,-640.5C783.635,-640.5 789.635,-646.5 789.635,-652.5"/>
<polyline fill="none" stroke="black" points="789.635,-652.5 789.635,-810.9 "/>
<path fill="none" stroke="black" d="M789.635,-810.9C789.635,-816.9 783.635,-822.9 777.635,-822.9"/>
<polyline fill="none" stroke="black" points="777.635,-822.9 592,-822.9 "/>
<path fill="none" stroke="black" d="M592,-822.9C586,-822.9 580,-816.9 580,-810.9"/>
<polyline fill="none" stroke="black" points="580,-810.9 580,-652.5 "/>
<path fill="none" stroke="black" d="M580,-652.5C580,-646.5 586,-640.5 592,-640.5"/>
<text text-anchor="middle" x="684.817" y="-804.9" font-family="Times,serif" font-size="14.00">StudentsController</text>
<polyline fill="none" stroke="black" points="580,-798.1 789.635,-798.1 "/>
<text text-anchor="start" x="588" y="-780.1" font-family="Times,serif" font-size="14.00">_callback_before_619</text>
<text text-anchor="start" x="588" y="-763.3" font-family="Times,serif" font-size="14.00">_callback_before_621</text>
<text text-anchor="start" x="588" y="-746.5" font-family="Times,serif" font-size="14.00">_one_time_conditions_valid_620?</text>
<text text-anchor="start" x="588" y="-729.7" font-family="Times,serif" font-size="14.00">_one_time_conditions_valid_622?</text>
<text text-anchor="start" x="588" y="-712.9" font-family="Times,serif" font-size="14.00">index</text>
<text text-anchor="start" x="588" y="-696.1" font-family="Times,serif" font-size="14.00">show</text>
<polyline fill="none" stroke="black" points="580,-689.3 789.635,-689.3 "/>
<polyline fill="none" stroke="black" points="580,-665.3 789.635,-665.3 "/>
<text text-anchor="start" x="588" y="-647.3" font-family="Times,serif" font-size="14.00">_layout</text>
</g>
<!-- StudyRoomController -->
<g id="node11" class="node"><title>StudyRoomController</title>
<polyline fill="none" stroke="black" points="612,-0.5 728.448,-0.5 "/>
<path fill="none" stroke="black" d="M728.448,-0.5C734.448,-0.5 740.448,-6.5 740.448,-12.5"/>
<polyline fill="none" stroke="black" points="740.448,-12.5 740.448,-86.1 "/>
<path fill="none" stroke="black" d="M740.448,-86.1C740.448,-92.1 734.448,-98.1 728.448,-98.1"/>
<polyline fill="none" stroke="black" points="728.448,-98.1 612,-98.1 "/>
<path fill="none" stroke="black" d="M612,-98.1C606,-98.1 600,-92.1 600,-86.1"/>
<polyline fill="none" stroke="black" points="600,-86.1 600,-12.5 "/>
<path fill="none" stroke="black" d="M600,-12.5C600,-6.5 606,-0.5 612,-0.5"/>
<text text-anchor="middle" x="670.224" y="-80.1" font-family="Times,serif" font-size="14.00">StudyRoomController</text>
<polyline fill="none" stroke="black" points="600,-73.3 740.448,-73.3 "/>
<polyline fill="none" stroke="black" points="600,-49.3 740.448,-49.3 "/>
<polyline fill="none" stroke="black" points="600,-25.3 740.448,-25.3 "/>
<text text-anchor="start" x="608" y="-7.3" font-family="Times,serif" font-size="14.00">_layout</text>
</g>
<!-- StudyRoomsController -->
<g id="node12" class="node"><title>StudyRoomsController</title>
<polyline fill="none" stroke="black" points="412,-800.5 533.896,-800.5 "/>
<path fill="none" stroke="black" d="M533.896,-800.5C539.896,-800.5 545.896,-806.5 545.896,-812.5"/>
<polyline fill="none" stroke="black" points="545.896,-812.5 545.896,-886.9 "/>
<path fill="none" stroke="black" d="M545.896,-886.9C545.896,-892.9 539.896,-898.9 533.896,-898.9"/>
<polyline fill="none" stroke="black" points="533.896,-898.9 412,-898.9 "/>
<path fill="none" stroke="black" d="M412,-898.9C406,-898.9 400,-892.9 400,-886.9"/>
<polyline fill="none" stroke="black" points="400,-886.9 400,-812.5 "/>
<path fill="none" stroke="black" d="M400,-812.5C400,-806.5 406,-800.5 412,-800.5"/>
<text text-anchor="middle" x="472.948" y="-880.9" font-family="Times,serif" font-size="14.00">StudyRoomsController</text>
<polyline fill="none" stroke="black" points="400,-874.1 545.896,-874.1 "/>
<text text-anchor="start" x="408" y="-856.1" font-family="Times,serif" font-size="14.00">index</text>
<polyline fill="none" stroke="black" points="400,-849.3 545.896,-849.3 "/>
<polyline fill="none" stroke="black" points="400,-825.3 545.896,-825.3 "/>
<text text-anchor="start" x="408" y="-807.3" font-family="Times,serif" font-size="14.00">_layout</text>
</g>
<!-- TeachersController -->
<g id="node13" class="node"><title>TeachersController</title>
<polyline fill="none" stroke="black" points="372,-100.5 557.635,-100.5 "/>
<path fill="none" stroke="black" d="M557.635,-100.5C563.635,-100.5 569.635,-106.5 569.635,-112.5"/>
<polyline fill="none" stroke="black" points="569.635,-112.5 569.635,-237.3 "/>
<path fill="none" stroke="black" d="M569.635,-237.3C569.635,-243.3 563.635,-249.3 557.635,-249.3"/>
<polyline fill="none" stroke="black" points="557.635,-249.3 372,-249.3 "/>
<path fill="none" stroke="black" d="M372,-249.3C366,-249.3 360,-243.3 360,-237.3"/>
<polyline fill="none" stroke="black" points="360,-237.3 360,-112.5 "/>
<path fill="none" stroke="black" d="M360,-112.5C360,-106.5 366,-100.5 372,-100.5"/>
<text text-anchor="middle" x="464.817" y="-231.3" font-family="Times,serif" font-size="14.00">TeachersController</text>
<polyline fill="none" stroke="black" points="360,-224.5 569.635,-224.5 "/>
<text text-anchor="start" x="368" y="-206.5" font-family="Times,serif" font-size="14.00">_callback_before_623</text>
<text text-anchor="start" x="368" y="-189.7" font-family="Times,serif" font-size="14.00">_one_time_conditions_valid_624?</text>
<text text-anchor="start" x="368" y="-172.9" font-family="Times,serif" font-size="14.00">index</text>
<text text-anchor="start" x="368" y="-156.1" font-family="Times,serif" font-size="14.00">students</text>
<polyline fill="none" stroke="black" points="360,-149.3 569.635,-149.3 "/>
<polyline fill="none" stroke="black" points="360,-125.3 569.635,-125.3 "/>
<text text-anchor="start" x="368" y="-107.3" font-family="Times,serif" font-size="14.00">_layout</text>
</g>
<!-- TestingsController -->
<g id="node14" class="node"><title>TestingsController</title>
<polyline fill="none" stroke="black" points="652,-140.5 837.635,-140.5 "/>
<path fill="none" stroke="black" d="M837.635,-140.5C843.635,-140.5 849.635,-146.5 849.635,-152.5"/>
<polyline fill="none" stroke="black" points="849.635,-152.5 849.635,-310.9 "/>
<path fill="none" stroke="black" d="M849.635,-310.9C849.635,-316.9 843.635,-322.9 837.635,-322.9"/>
<polyline fill="none" stroke="black" points="837.635,-322.9 652,-322.9 "/>
<path fill="none" stroke="black" d="M652,-322.9C646,-322.9 640,-316.9 640,-310.9"/>
<polyline fill="none" stroke="black" points="640,-310.9 640,-152.5 "/>
<path fill="none" stroke="black" d="M640,-152.5C640,-146.5 646,-140.5 652,-140.5"/>
<text text-anchor="middle" x="744.817" y="-304.9" font-family="Times,serif" font-size="14.00">TestingsController</text>
<polyline fill="none" stroke="black" points="640,-298.1 849.635,-298.1 "/>
<text text-anchor="start" x="648" y="-280.1" font-family="Times,serif" font-size="14.00">_one_time_conditions_valid_626?</text>
<text text-anchor="start" x="648" y="-263.3" font-family="Times,serif" font-size="14.00">_one_time_conditions_valid_628?</text>
<text text-anchor="start" x="648" y="-246.5" font-family="Times,serif" font-size="14.00">load_instance</text>
<text text-anchor="start" x="648" y="-229.7" font-family="Times,serif" font-size="14.00">next</text>
<text text-anchor="start" x="648" y="-212.9" font-family="Times,serif" font-size="14.00">results</text>
<text text-anchor="start" x="648" y="-196.1" font-family="Times,serif" font-size="14.00">show</text>
<polyline fill="none" stroke="black" points="640,-189.3 849.635,-189.3 "/>
<polyline fill="none" stroke="black" points="640,-165.3 849.635,-165.3 "/>
<text text-anchor="start" x="648" y="-147.3" font-family="Times,serif" font-size="14.00">_layout</text>
</g>
<!-- UserCoursesController -->
<g id="node15" class="node"><title>UserCoursesController</title>
<polyline fill="none" stroke="black" points="72,-480.5 193.09,-480.5 "/>
<path fill="none" stroke="black" d="M193.09,-480.5C199.09,-480.5 205.09,-486.5 205.09,-492.5"/>
<polyline fill="none" stroke="black" points="205.09,-492.5 205.09,-600.5 "/>
<path fill="none" stroke="black" d="M205.09,-600.5C205.09,-606.5 199.09,-612.5 193.09,-612.5"/>
<polyline fill="none" stroke="black" points="193.09,-612.5 72,-612.5 "/>
<path fill="none" stroke="black" d="M72,-612.5C66,-612.5 60,-606.5 60,-600.5"/>
<polyline fill="none" stroke="black" points="60,-600.5 60,-492.5 "/>
<path fill="none" stroke="black" d="M60,-492.5C60,-486.5 66,-480.5 72,-480.5"/>
<text text-anchor="middle" x="132.545" y="-594.5" font-family="Times,serif" font-size="14.00">UserCoursesController</text>
<polyline fill="none" stroke="black" points="60,-587.7 205.09,-587.7 "/>
<text text-anchor="start" x="68" y="-569.7" font-family="Times,serif" font-size="14.00">bulk</text>
<text text-anchor="start" x="68" y="-552.9" font-family="Times,serif" font-size="14.00">create</text>
<text text-anchor="start" x="68" y="-536.1" font-family="Times,serif" font-size="14.00">destroy</text>
<polyline fill="none" stroke="black" points="60,-529.3 205.09,-529.3 "/>
<polyline fill="none" stroke="black" points="60,-505.3 205.09,-505.3 "/>
<text text-anchor="start" x="68" y="-487.3" font-family="Times,serif" font-size="14.00">_layout</text>
</g>
<!-- VideosController -->
<g id="node16" class="node"><title>VideosController</title>
<polyline fill="none" stroke="black" points="492,-300.5 592.842,-300.5 "/>
<path fill="none" stroke="black" d="M592.842,-300.5C598.842,-300.5 604.842,-306.5 604.842,-312.5"/>
<polyline fill="none" stroke="black" points="604.842,-312.5 604.842,-589.3 "/>
<path fill="none" stroke="black" d="M604.842,-589.3C604.842,-595.3 598.842,-601.3 592.842,-601.3"/>
<polyline fill="none" stroke="black" points="592.842,-601.3 492,-601.3 "/>
<path fill="none" stroke="black" d="M492,-601.3C486,-601.3 480,-595.3 480,-589.3"/>
<polyline fill="none" stroke="black" points="480,-589.3 480,-312.5 "/>
<path fill="none" stroke="black" d="M480,-312.5C480,-306.5 486,-300.5 492,-300.5"/>
<text text-anchor="middle" x="542.421" y="-583.3" font-family="Times,serif" font-size="14.00">VideosController</text>
<polyline fill="none" stroke="black" points="480,-576.5 604.842,-576.5 "/>
<text text-anchor="start" x="488" y="-558.5" font-family="Times,serif" font-size="14.00">add_comment</text>
<text text-anchor="start" x="488" y="-541.7" font-family="Times,serif" font-size="14.00">destroy</text>
<text text-anchor="start" x="488" y="-524.9" font-family="Times,serif" font-size="14.00">save_video</text>
<text text-anchor="start" x="488" y="-508.1" font-family="Times,serif" font-size="14.00">update</text>
<text text-anchor="start" x="488" y="-491.3" font-family="Times,serif" font-size="14.00">upload</text>
<polyline fill="none" stroke="black" points="480,-484.5 604.842,-484.5 "/>
<text text-anchor="start" x="488" y="-466.5" font-family="Times,serif" font-size="14.00">collection</text>
<text text-anchor="start" x="488" y="-449.7" font-family="Times,serif" font-size="14.00">collection_path</text>
<text text-anchor="start" x="488" y="-432.9" font-family="Times,serif" font-size="14.00">collection_url</text>
<text text-anchor="start" x="488" y="-416.1" font-family="Times,serif" font-size="14.00">edit_resource_path</text>
<text text-anchor="start" x="488" y="-399.3" font-family="Times,serif" font-size="14.00">edit_resource_url</text>
<text text-anchor="start" x="488" y="-382.5" font-family="Times,serif" font-size="14.00">new_resource_path</text>
<text text-anchor="start" x="488" y="-365.7" font-family="Times,serif" font-size="14.00">new_resource_url</text>
<text text-anchor="start" x="488" y="-348.9" font-family="Times,serif" font-size="14.00">resource_path</text>
<text text-anchor="start" x="488" y="-332.1" font-family="Times,serif" font-size="14.00">resource_url</text>
<polyline fill="none" stroke="black" points="480,-325.3 604.842,-325.3 "/>
<text text-anchor="start" x="488" y="-307.3" font-family="Times,serif" font-size="14.00">_layout</text>
</g>
</g>
</svg>
