<?xml version="1.0" encoding="UTF-8" standalone="no"?>
<!DOCTYPE svg PUBLIC "-//W3C//DTD SVG 1.1//EN"
 "http://www.w3.org/Graphics/SVG/1.1/DTD/svg11.dtd">
<!-- Generated by graphviz version 2.28.0 (20120603.1621)
 -->
<!-- Title: models_diagram Pages: 1 -->
<svg width="846pt" height="702pt"
 viewBox="0.00 0.00 846.00 702.00" xmlns="http://www.w3.org/2000/svg" xmlns:xlink="http://www.w3.org/1999/xlink">
<g id="graph1" class="graph" transform="scale(1 1) rotate(0) translate(4 698)">
<title>models_diagram</title>
<polygon fill="white" stroke="white" points="-4,5 -4,-698 843,-698 843,5 -4,5"/>
<!-- _diagram_info -->
<g id="node1" class="node"><title>_diagram_info</title>
<text text-anchor="start" x="22.3123" y="-677" font-family="Times,serif" font-size="13.00">Models diagram</text>
<text text-anchor="start" x="22.3123" y="-661.4" font-family="Times,serif" font-size="13.00">Date: Jun 03 2012 &#45; 19:31</text>
<text text-anchor="start" x="22.3123" y="-645.8" font-family="Times,serif" font-size="13.00">Migration version: 20120513135320</text>
<text text-anchor="start" x="22.3123" y="-630.2" font-family="Times,serif" font-size="13.00">Generated by RailRoady 1.0.7</text>
<text text-anchor="start" x="22.3123" y="-614.6" font-family="Times,serif" font-size="13.00">http://railroady.prestonlee.com</text>
</g>
<!-- Ability -->
<g id="node2" class="node"><title>Ability</title>
<polygon fill="none" stroke="black" points="295.255,-669 240.745,-669 240.745,-633 295.255,-633 295.255,-669"/>
<text text-anchor="middle" x="268" y="-645.4" font-family="Times,serif" font-size="14.00">Ability</text>
</g>
<!-- Answer -->
<g id="node3" class="node"><title>Answer</title>
<ellipse fill="none" stroke="black" cx="226" cy="-256" rx="41.1096" ry="18"/>
<text text-anchor="middle" x="226" y="-250.4" font-family="Times,serif" font-size="14.00">Answer</text>
</g>
<!-- Category -->
<g id="node4" class="node"><title>Category</title>
<ellipse fill="none" stroke="black" cx="360" cy="-651" rx="46.1519" ry="18"/>
<text text-anchor="middle" x="360" y="-645.4" font-family="Times,serif" font-size="14.00">Category</text>
</g>
<!-- Course -->
<g id="node8" class="node"><title>Course</title>
<ellipse fill="none" stroke="black" cx="360" cy="-552" rx="38.0929" ry="18"/>
<text text-anchor="middle" x="360" y="-546.4" font-family="Times,serif" font-size="14.00">Course</text>
</g>
<!-- Category&#45;&gt;Course -->
<g id="edge2" class="edge"><title>Category&#45;&gt;Course</title>
<path fill="none" stroke="#1f278e" d="M360,-624.227C360,-610.741 360,-594.227 360,-580.496"/>
<ellipse fill="none" stroke="#1f278e" cx="360" cy="-628.658" rx="4" ry="4"/>
<polygon fill="#1f278e" stroke="#1f278e" points="360,-580.192 364.5,-570.191 360,-575.192 360,-570.192 360,-570.192 360,-570.192 360,-575.192 355.5,-570.192 360,-580.192 360,-580.192"/>
</g>
<!-- Ckeditor::Asset -->
<g id="node5" class="node"><title>Ckeditor::Asset</title>
<ellipse fill="none" stroke="black" cx="630" cy="-651" rx="71.4843" ry="18"/>
<text text-anchor="middle" x="630" y="-645.4" font-family="Times,serif" font-size="14.00">Ckeditor::Asset</text>
</g>
<!-- Ckeditor::AttachmentFile -->
<g id="node6" class="node"><title>Ckeditor::AttachmentFile</title>
<ellipse fill="none" stroke="black" cx="527" cy="-552" rx="109.906" ry="18"/>
<text text-anchor="middle" x="527" y="-546.4" font-family="Times,serif" font-size="14.00">Ckeditor::AttachmentFile</text>
</g>
<!-- Ckeditor::Asset&#45;&gt;Ckeditor::AttachmentFile -->
<g id="edge4" class="edge"><title>Ckeditor::Asset&#45;&gt;Ckeditor::AttachmentFile</title>
<path fill="none" stroke="black" d="M612.527,-633.545C593.702,-615.816 563.896,-587.747 544.904,-569.861"/>
</g>
<!-- Ckeditor::Picture -->
<g id="node7" class="node"><title>Ckeditor::Picture</title>
<ellipse fill="none" stroke="black" cx="733" cy="-552" rx="77.3258" ry="18"/>
<text text-anchor="middle" x="733" y="-546.4" font-family="Times,serif" font-size="14.00">Ckeditor::Picture</text>
</g>
<!-- Ckeditor::Asset&#45;&gt;Ckeditor::Picture -->
<g id="edge6" class="edge"><title>Ckeditor::Asset&#45;&gt;Ckeditor::Picture</title>
<path fill="none" stroke="black" d="M647.473,-633.545C666.413,-615.708 696.468,-587.404 715.442,-569.535"/>
</g>
<!-- Document -->
<g id="node9" class="node"><title>Document</title>
<ellipse fill="none" stroke="black" cx="581" cy="-404" rx="50.8959" ry="18"/>
<text text-anchor="middle" x="581" y="-398.4" font-family="Times,serif" font-size="14.00">Document</text>
</g>
<!-- Course&#45;&gt;Document -->
<g id="edge26" class="edge"><title>Course&#45;&gt;Document</title>
<path fill="none" stroke="#0cdd34" d="M398.992,-536.996C437.912,-522.842 493.177,-502.202 502,-496 527.495,-478.078 550.068,-450.203 564.487,-430.025"/>
<polygon fill="#0cdd34" stroke="#0cdd34" points="398.889,-537.033 387.954,-536.211 394.188,-538.737 389.488,-540.442 389.488,-540.442 389.488,-540.442 394.188,-538.737 391.022,-544.672 398.889,-537.033 398.889,-537.033"/>
<polygon fill="#0cdd34" stroke="#0cdd34" points="564.619,-429.835 574.028,-424.203 567.477,-425.733 570.335,-421.63 570.335,-421.63 570.335,-421.63 567.477,-425.733 566.643,-419.058 564.619,-429.835 564.619,-429.835"/>
</g>
<!-- Lesson -->
<g id="node10" class="node"><title>Lesson</title>
<ellipse fill="none" stroke="black" cx="455" cy="-478" rx="38.0929" ry="18"/>
<text text-anchor="middle" x="455" y="-472.4" font-family="Times,serif" font-size="14.00">Lesson</text>
</g>
<!-- Course&#45;&gt;Lesson -->
<g id="edge12" class="edge"><title>Course&#45;&gt;Lesson</title>
<path fill="none" stroke="#978b1a" d="M385.668,-531.547C398.528,-521.8 414.117,-509.985 427.253,-500.029"/>
<ellipse fill="none" stroke="#978b1a" cx="382.413" cy="-534.014" rx="4.00002" ry="4.00002"/>
<polygon fill="#978b1a" stroke="#978b1a" points="427.508,-499.836 438.196,-497.382 431.493,-496.816 435.478,-493.796 435.478,-493.796 435.478,-493.796 431.493,-496.816 432.76,-490.209 427.508,-499.836 427.508,-499.836"/>
</g>
<!-- StudentGroup -->
<g id="node12" class="node"><title>StudentGroup</title>
<ellipse fill="none" stroke="black" cx="254" cy="-92" rx="65.3305" ry="18"/>
<text text-anchor="middle" x="254" y="-86.4" font-family="Times,serif" font-size="14.00">StudentGroup</text>
</g>
<!-- Course&#45;&gt;StudentGroup -->
<g id="edge16" class="edge"><title>Course&#45;&gt;StudentGroup</title>
<path fill="none" stroke="#c592b5" d="M311.937,-549.01C229.047,-544.256 68,-528.633 68,-479 68,-479 68,-479 68,-165 68,-137.944 137.311,-117.09 191.312,-104.948"/>
<polygon fill="#c592b5" stroke="#c592b5" points="312.14,-549.021 321.882,-554.056 317.133,-549.292 322.125,-549.562 322.125,-549.562 322.125,-549.562 317.133,-549.292 322.369,-545.069 312.14,-549.021 312.14,-549.021"/>
<polygon fill="#c592b5" stroke="#c592b5" points="191.429,-104.923 202.16,-107.179 196.313,-103.853 201.197,-102.783 201.197,-102.783 201.197,-102.783 196.313,-103.853 200.234,-98.3874 191.429,-104.923 191.429,-104.923"/>
</g>
<!-- StudentGroupCourse -->
<g id="node13" class="node"><title>StudentGroupCourse</title>
<ellipse fill="none" stroke="black" cx="92" cy="-18" rx="92.3672" ry="18"/>
<text text-anchor="middle" x="92" y="-12.4" font-family="Times,serif" font-size="14.00">StudentGroupCourse</text>
</g>
<!-- Course&#45;&gt;StudentGroupCourse -->
<g id="edge14" class="edge"><title>Course&#45;&gt;StudentGroupCourse</title>
<path fill="none" stroke="#74f3d0" d="M313.617,-550.446C222.735,-548.1 30,-536.362 30,-479 30,-479 30,-479 30,-91 30,-71.3752 43.3899,-54.4409 57.7246,-41.9348"/>
<ellipse fill="none" stroke="#74f3d0" cx="317.824" cy="-550.545" rx="4" ry="4"/>
<polygon fill="#74f3d0" stroke="#74f3d0" points="57.9433,-41.7572 68.543,-38.947 61.8249,-38.6054 65.7064,-35.4536 65.7064,-35.4536 65.7064,-35.4536 61.8249,-38.6054 62.8698,-31.9602 57.9433,-41.7572 57.9433,-41.7572"/>
</g>
<!-- Testing -->
<g id="node15" class="node"><title>Testing</title>
<ellipse fill="none" stroke="black" cx="273" cy="-404" rx="38.994" ry="18"/>
<text text-anchor="middle" x="273" y="-398.4" font-family="Times,serif" font-size="14.00">Testing</text>
</g>
<!-- Course&#45;&gt;Testing -->
<g id="edge20" class="edge"><title>Course&#45;&gt;Testing</title>
<path fill="none" stroke="#5ae39e" d="M335.725,-528.081C332.244,-524.224 328.874,-520.128 326,-516 307.399,-489.284 292.158,-455.026 282.871,-431.681"/>
<polygon fill="#5ae39e" stroke="#5ae39e" points="335.995,-528.364 339.649,-538.703 339.449,-531.979 342.903,-535.594 342.903,-535.594 342.903,-535.594 339.449,-531.979 346.157,-532.486 335.995,-528.364 335.995,-528.364"/>
<polygon fill="#5ae39e" stroke="#5ae39e" points="282.768,-431.416 283.342,-420.465 280.957,-426.755 279.147,-422.094 279.147,-422.094 279.147,-422.094 280.957,-426.755 274.952,-423.723 282.768,-431.416 282.768,-431.416"/>
</g>
<!-- User -->
<g id="node16" class="node"><title>User</title>
<ellipse fill="none" stroke="black" cx="386" cy="-256" rx="28.9087" ry="18"/>
<text text-anchor="middle" x="386" y="-250.4" font-family="Times,serif" font-size="14.00">User</text>
</g>
<!-- Course&#45;&gt;User -->
<g id="edge10" class="edge"><title>Course&#45;&gt;User</title>
<path fill="none" stroke="#1b8e3c" d="M358.001,-523.413C356.045,-490.576 354.017,-434.128 359,-386 362.707,-350.194 372.055,-309.678 378.71,-283.763"/>
<polygon fill="#1b8e3c" stroke="#1b8e3c" points="358.014,-523.618 354.161,-533.885 358.333,-528.608 358.652,-533.598 358.652,-533.598 358.652,-533.598 358.333,-528.608 363.143,-533.311 358.014,-523.618 358.014,-523.618"/>
<polygon fill="#1b8e3c" stroke="#1b8e3c" points="378.751,-283.607 385.639,-275.075 380.019,-278.771 381.286,-273.934 381.286,-273.934 381.286,-273.934 380.019,-278.771 376.933,-272.793 378.751,-283.607 378.751,-283.607"/>
</g>
<!-- UserCourse -->
<g id="node18" class="node"><title>UserCourse</title>
<ellipse fill="none" stroke="black" cx="571" cy="-166" rx="56.4428" ry="18"/>
<text text-anchor="middle" x="571" y="-160.4" font-family="Times,serif" font-size="14.00">UserCourse</text>
</g>
<!-- Course&#45;&gt;UserCourse -->
<g id="edge8" class="edge"><title>Course&#45;&gt;UserCourse</title>
<path fill="none" stroke="#2e946d" d="M396.937,-537.659C400.664,-536.391 404.4,-535.151 408,-534 517.444,-499.021 587.874,-523.879 641,-422 681.781,-343.795 621.929,-239.356 589.519,-192.102"/>
<ellipse fill="none" stroke="#2e946d" cx="393.129" cy="-538.975" rx="4.00001" ry="4.00001"/>
<polygon fill="#2e946d" stroke="#2e946d" points="589.37,-191.889 587.314,-181.117 586.5,-187.795 583.629,-183.701 583.629,-183.701 583.629,-183.701 586.5,-187.795 579.945,-186.284 589.37,-191.889 589.37,-191.889"/>
</g>
<!-- UserLesson -->
<g id="node19" class="node"><title>UserLesson</title>
<ellipse fill="none" stroke="black" cx="702" cy="-166" rx="56.4428" ry="18"/>
<text text-anchor="middle" x="702" y="-160.4" font-family="Times,serif" font-size="14.00">UserLesson</text>
</g>
<!-- Course&#45;&gt;UserLesson -->
<g id="edge22" class="edge"><title>Course&#45;&gt;UserLesson</title>
<path fill="none" stroke="#ce0970" d="M396.523,-537.411C400.373,-536.176 404.25,-535.011 408,-534 471.755,-516.816 700,-545.03 700,-479 700,-479 700,-479 700,-255 700,-234.625 700.542,-211.604 701.062,-194.219"/>
<ellipse fill="none" stroke="#ce0970" cx="392.503" cy="-538.754" rx="4.00001" ry="4.00001"/>
<polygon fill="#ce0970" stroke="#ce0970" points="701.063,-194.192 705.876,-184.339 701.221,-189.194 701.378,-184.197 701.378,-184.197 701.378,-184.197 701.221,-189.194 696.88,-184.055 701.063,-194.192 701.063,-194.192"/>
</g>
<!-- UserTesting -->
<g id="node21" class="node"><title>UserTesting</title>
<ellipse fill="none" stroke="black" cx="154" cy="-166" rx="57.3434" ry="18"/>
<text text-anchor="middle" x="154" y="-160.4" font-family="Times,serif" font-size="14.00">UserTesting</text>
</g>
<!-- Course&#45;&gt;UserTesting -->
<g id="edge18" class="edge"><title>Course&#45;&gt;UserTesting</title>
<path fill="none" stroke="#8b7a4e" d="M314.648,-546.776C244.831,-539.002 119,-519.388 119,-479 119,-479 119,-479 119,-255 119,-232.804 128.733,-209.545 137.934,-192.518"/>
<ellipse fill="none" stroke="#8b7a4e" cx="318.895" cy="-547.235" rx="4" ry="4"/>
<polygon fill="#8b7a4e" stroke="#8b7a4e" points="137.98,-192.437 146.837,-185.971 140.453,-188.091 142.926,-183.746 142.926,-183.746 142.926,-183.746 140.453,-188.091 139.015,-181.52 137.98,-192.437 137.98,-192.437"/>
</g>
<!-- Video -->
<g id="node22" class="node"><title>Video</title>
<ellipse fill="none" stroke="black" cx="402" cy="-404" rx="34.0921" ry="18"/>
<text text-anchor="middle" x="402" y="-398.4" font-family="Times,serif" font-size="14.00">Video</text>
</g>
<!-- Course&#45;&gt;Video -->
<g id="edge24" class="edge"><title>Course&#45;&gt;Video</title>
<path fill="none" stroke="#3d1f2a" d="M367.708,-524.205C375.287,-497.86 386.788,-457.881 394.347,-431.602"/>
<polygon fill="#3d1f2a" stroke="#3d1f2a" points="367.665,-524.356 360.576,-532.722 366.282,-529.161 364.9,-533.966 364.9,-533.966 364.9,-533.966 366.282,-529.161 369.225,-535.21 367.665,-524.356 367.665,-524.356"/>
<polygon fill="#3d1f2a" stroke="#3d1f2a" points="394.366,-431.536 401.456,-423.169 395.749,-426.73 397.131,-421.925 397.131,-421.925 397.131,-421.925 395.749,-426.73 392.806,-420.681 394.366,-431.536 394.366,-431.536"/>
</g>
<!-- Lesson&#45;&gt;Document -->
<g id="edge36" class="edge"><title>Lesson&#45;&gt;Document</title>
<path fill="none" stroke="#80914b" d="M485.625,-459.5C503.913,-449.05 527.198,-435.744 546.182,-424.896"/>
<ellipse fill="none" stroke="#80914b" cx="481.877" cy="-461.642" rx="4.00002" ry="4.00002"/>
<polygon fill="#80914b" stroke="#80914b" points="546.433,-424.752 557.348,-423.698 550.775,-422.272 555.116,-419.791 555.116,-419.791 555.116,-419.791 550.775,-422.272 552.883,-415.884 546.433,-424.752 546.433,-424.752"/>
</g>
<!-- Lesson&#45;&gt;Testing -->
<g id="edge32" class="edge"><title>Lesson&#45;&gt;Testing</title>
<path fill="none" stroke="#b92f1f" d="M419.073,-462.787C387.947,-450.474 343.042,-432.709 311.253,-420.133"/>
<ellipse fill="none" stroke="#b92f1f" cx="422.843" cy="-464.279" rx="4.00001" ry="4.00001"/>
<polygon fill="#b92f1f" stroke="#b92f1f" points="311.137,-420.087 303.494,-412.224 306.488,-418.248 301.838,-416.409 301.838,-416.409 301.838,-416.409 306.488,-418.248 300.183,-420.593 311.137,-420.087 311.137,-420.087"/>
</g>
<!-- Lesson&#45;&gt;User -->
<g id="edge30" class="edge"><title>Lesson&#45;&gt;User</title>
<path fill="none" stroke="#50b6cb" d="M454.268,-449.678C453.228,-431.38 450.768,-406.906 445,-386 434.546,-348.109 414.193,-307.321 400.348,-281.978"/>
<polygon fill="#50b6cb" stroke="#50b6cb" points="454.28,-449.935 450.245,-460.132 454.51,-454.93 454.74,-459.925 454.74,-459.925 454.74,-459.925 454.51,-454.93 459.235,-459.718 454.28,-449.935 454.28,-449.935"/>
<polygon fill="#50b6cb" stroke="#50b6cb" points="400.25,-281.801 399.329,-270.874 397.823,-277.43 395.395,-273.059 395.395,-273.059 395.395,-273.059 397.823,-277.43 391.461,-275.244 400.25,-281.801 400.25,-281.801"/>
</g>
<!-- Lesson&#45;&gt;UserLesson -->
<g id="edge28" class="edge"><title>Lesson&#45;&gt;UserLesson</title>
<path fill="none" stroke="#9f0f80" d="M471.273,-453.72C484.395,-435.155 503.485,-408.61 521,-386 577.096,-313.585 647.053,-230.988 681.242,-191.088"/>
<ellipse fill="none" stroke="#9f0f80" cx="468.684" cy="-457.393" rx="4.00002" ry="4.00002"/>
<polygon fill="#9f0f80" stroke="#9f0f80" points="681.27,-191.056 691.198,-186.398 684.527,-187.261 687.783,-183.467 687.783,-183.467 687.783,-183.467 684.527,-187.261 684.368,-180.536 681.27,-191.056 681.27,-191.056"/>
</g>
<!-- Lesson&#45;&gt;Video -->
<g id="edge34" class="edge"><title>Lesson&#45;&gt;Video</title>
<path fill="none" stroke="#868f35" d="M438.043,-453.965C432.288,-446.147 425.84,-437.387 420.006,-429.462"/>
<ellipse fill="none" stroke="#868f35" cx="440.602" cy="-457.441" rx="4.00002" ry="4.00002"/>
<polygon fill="#868f35" stroke="#868f35" points="419.907,-429.327 417.603,-418.606 416.943,-425.3 413.979,-421.273 413.979,-421.273 413.979,-421.273 416.943,-425.3 410.355,-423.941 419.907,-429.327 419.907,-429.327"/>
</g>
<!-- Question -->
<g id="node11" class="node"><title>Question</title>
<ellipse fill="none" stroke="black" cx="273" cy="-330" rx="45.3604" ry="18"/>
<text text-anchor="middle" x="273" y="-324.4" font-family="Times,serif" font-size="14.00">Question</text>
</g>
<!-- Question&#45;&gt;Answer -->
<g id="edge38" class="edge"><title>Question&#45;&gt;Answer</title>
<path fill="none" stroke="#5a33c2" d="M257.598,-305.406C252.721,-297.934 247.314,-289.651 242.371,-282.079"/>
<ellipse fill="none" stroke="#5a33c2" cx="259.913" cy="-308.951" rx="4.00002" ry="4.00002"/>
<polygon fill="#5a33c2" stroke="#5a33c2" points="242.308,-281.982 240.61,-271.149 239.575,-277.796 236.842,-273.609 236.842,-273.609 236.842,-273.609 239.575,-277.796 233.074,-276.068 242.308,-281.982 242.308,-281.982"/>
</g>
<!-- Question&#45;&gt;User -->
<g id="edge42" class="edge"><title>Question&#45;&gt;User</title>
<path fill="none" stroke="#fcb720" d="M304.541,-308.903C321.214,-298.279 341.517,-285.343 357.682,-275.043"/>
<polygon fill="#fcb720" stroke="#fcb720" points="304.301,-309.056 293.449,-310.635 300.084,-311.743 295.867,-314.43 295.867,-314.43 295.867,-314.43 300.084,-311.743 298.285,-318.225 304.301,-309.056 304.301,-309.056"/>
<polygon fill="#fcb720" stroke="#fcb720" points="357.754,-274.997 368.606,-273.419 361.971,-272.311 366.188,-269.624 366.188,-269.624 366.188,-269.624 361.971,-272.311 363.769,-265.829 357.754,-274.997 357.754,-274.997"/>
</g>
<!-- UserQuestion -->
<g id="node20" class="node"><title>UserQuestion</title>
<ellipse fill="none" stroke="black" cx="294" cy="-166" rx="64.2106" ry="18"/>
<text text-anchor="middle" x="294" y="-160.4" font-family="Times,serif" font-size="14.00">UserQuestion</text>
</g>
<!-- Question&#45;&gt;UserQuestion -->
<g id="edge40" class="edge"><title>Question&#45;&gt;UserQuestion</title>
<path fill="none" stroke="#753c91" d="M276.283,-303.676C280.137,-273.94 286.506,-224.807 290.467,-194.258"/>
<ellipse fill="none" stroke="#753c91" cx="275.722" cy="-308.003" rx="4.00001" ry="4.00001"/>
<polygon fill="#753c91" stroke="#753c91" points="290.473,-194.207 296.221,-184.869 291.116,-189.249 291.759,-184.29 291.759,-184.29 291.759,-184.29 291.116,-189.249 287.296,-183.712 290.473,-194.207 290.473,-194.207"/>
</g>
<!-- StudentGroup&#45;&gt;StudentGroupCourse -->
<g id="edge46" class="edge"><title>StudentGroup&#45;&gt;StudentGroupCourse</title>
<path fill="none" stroke="#956084" d="M213.604,-73.0463C190.178,-62.6347 160.64,-49.5069 136.543,-38.7967"/>
<ellipse fill="none" stroke="#956084" cx="217.562" cy="-74.8051" rx="4.00002" ry="4.00002"/>
<polygon fill="#956084" stroke="#956084" points="136.399,-38.7329 129.088,-30.5593 131.83,-36.7022 127.261,-34.6715 127.261,-34.6715 127.261,-34.6715 131.83,-36.7022 125.433,-38.7836 136.399,-38.7329 136.399,-38.7329"/>
</g>
<!-- StudentGroup&#45;&gt;User -->
<g id="edge44" class="edge"><title>StudentGroup&#45;&gt;User</title>
<path fill="none" stroke="#84ee0d" d="M307.95,-107.465C329.442,-115.888 352.475,-128.764 367,-148 384.275,-170.876 387.737,-204.289 387.697,-227.673"/>
<ellipse fill="none" stroke="#84ee0d" cx="304.178" cy="-106.062" rx="4.00001" ry="4.00001"/>
<polygon fill="#84ee0d" stroke="#84ee0d" points="387.691,-227.949 382.957,-237.841 387.573,-232.948 387.456,-237.947 387.456,-237.947 387.456,-237.947 387.573,-232.948 391.954,-238.052 387.691,-227.949 387.691,-227.949"/>
</g>
<!-- Teacher -->
<g id="node14" class="node"><title>Teacher</title>
<ellipse fill="none" stroke="black" cx="455" cy="-166" rx="41.1757" ry="18"/>
<text text-anchor="middle" x="455" y="-160.4" font-family="Times,serif" font-size="14.00">Teacher</text>
</g>
<!-- Teacher&#45;&gt;StudentGroup -->
<g id="edge48" class="edge"><title>Teacher&#45;&gt;StudentGroup</title>
<path fill="none" stroke="#88c809" d="M429.594,-145.146C420.64,-138.916 410.244,-132.498 400,-128 374.717,-116.899 345.357,-108.992 319.624,-103.536"/>
<ellipse fill="none" stroke="#88c809" cx="432.885" cy="-147.508" rx="4.00002" ry="4.00002"/>
<polygon fill="#88c809" stroke="#88c809" points="319.385,-103.488 310.485,-97.0821 314.486,-102.49 309.586,-101.492 309.586,-101.492 309.586,-101.492 314.486,-102.49 308.688,-105.901 319.385,-103.488 319.385,-103.488"/>
</g>
<!-- Testing&#45;&gt;Answer -->
<g id="edge52" class="edge"><title>Testing&#45;&gt;Answer</title>
<path fill="none" stroke="#c8d51e" d="M244.117,-382.097C233.846,-372.924 223.477,-361.222 218,-348 209.499,-327.478 212.695,-302.172 217.333,-283.46"/>
<polygon fill="#c8d51e" stroke="#c8d51e" points="244.21,-382.174 248.978,-392.049 248.04,-385.388 251.87,-388.602 251.87,-388.602 251.87,-388.602 248.04,-385.388 254.763,-385.155 244.21,-382.174 244.21,-382.174"/>
<polygon fill="#c8d51e" stroke="#c8d51e" points="217.335,-283.455 224.331,-275.011 218.664,-278.635 219.993,-273.815 219.993,-273.815 219.993,-273.815 218.664,-278.635 215.655,-272.618 217.335,-283.455 217.335,-283.455"/>
</g>
<!-- Testing&#45;&gt;Question -->
<g id="edge50" class="edge"><title>Testing&#45;&gt;Question</title>
<path fill="none" stroke="#1d9088" d="M273,-377.792C273,-371.58 273,-364.896 273,-358.579"/>
<ellipse fill="none" stroke="#1d9088" cx="273" cy="-381.937" rx="4" ry="4"/>
<polygon fill="#1d9088" stroke="#1d9088" points="273,-358.441 277.5,-348.441 273,-353.441 273,-348.441 273,-348.441 273,-348.441 273,-353.441 268.5,-348.441 273,-358.441 273,-358.441"/>
</g>
<!-- Testing&#45;&gt;User -->
<g id="edge56" class="edge"><title>Testing&#45;&gt;User</title>
<path fill="none" stroke="#8e61f7" d="M297.399,-380.23C307.078,-370.68 318.018,-359.205 327,-348 343.925,-326.886 360.442,-300.798 371.674,-281.976"/>
<polygon fill="#8e61f7" stroke="#8e61f7" points="297.148,-380.474 286.836,-384.204 293.558,-383.954 289.969,-387.435 289.969,-387.435 289.969,-387.435 293.558,-383.954 293.101,-390.666 297.148,-380.474 297.148,-380.474"/>
<polygon fill="#8e61f7" stroke="#8e61f7" points="371.817,-281.734 380.769,-275.4 374.354,-277.425 376.891,-273.117 376.891,-273.117 376.891,-273.117 374.354,-277.425 373.014,-270.833 371.817,-281.734 371.817,-281.734"/>
</g>
<!-- Testing&#45;&gt;UserTesting -->
<g id="edge54" class="edge"><title>Testing&#45;&gt;UserTesting</title>
<path fill="none" stroke="#5e716b" d="M243.955,-384.028C231.542,-374.565 217.892,-362.121 209,-348 189.811,-317.528 187.024,-308.282 176,-274 167.468,-247.468 161.482,-216.139 157.93,-194.262"/>
<ellipse fill="none" stroke="#5e716b" cx="247.462" cy="-386.603" rx="4.00002" ry="4.00002"/>
<polygon fill="#5e716b" stroke="#5e716b" points="157.925,-194.225 160.828,-183.65 157.153,-189.285 156.382,-184.344 156.382,-184.344 156.382,-184.344 157.153,-189.285 151.936,-185.039 157.925,-194.225 157.925,-194.225"/>
</g>
<!-- User&#45;&gt;Teacher -->
<g id="edge62" class="edge"><title>User&#45;&gt;Teacher</title>
<path fill="none" stroke="#0a237e" d="M402.064,-232.4C408.966,-222.893 417.222,-211.788 425,-202 427.879,-198.378 430.987,-194.607 434.075,-190.938"/>
<ellipse fill="none" stroke="#0a237e" cx="399.643" cy="-235.755" rx="4.00002" ry="4.00002"/>
<polygon fill="#0a237e" stroke="#0a237e" points="434.212,-190.777 444.127,-186.092 437.458,-186.974 440.704,-183.171 440.704,-183.171 440.704,-183.171 437.458,-186.974 437.281,-180.25 434.212,-190.777 434.212,-190.777"/>
</g>
<!-- User&#45;&gt;User -->
<g id="edge60" class="edge"><title>User&#45;&gt;User</title>
<path fill="none" stroke="#42def6" d="M423.317,-262.173C429.079,-261.241 433,-259.184 433,-256 433,-252.816 429.079,-250.759 423.317,-249.827"/>
<polygon fill="#42def6" stroke="#42def6" points="423.033,-262.187 412.812,-258.215 418.04,-262.448 413.047,-262.709 413.047,-262.709 413.047,-262.709 418.04,-262.448 413.282,-267.203 423.033,-262.187 423.033,-262.187"/>
<polygon fill="#42def6" stroke="#42def6" points="423.033,-249.813 413.282,-244.797 418.04,-249.552 413.047,-249.291 413.047,-249.291 413.047,-249.291 418.04,-249.552 412.812,-253.785 423.033,-249.813 423.033,-249.813"/>
<text text-anchor="middle" x="481.6" y="-250.4" font-family="Times,serif" font-size="14.00">assigned_courses</text>
</g>
<!-- User&#45;&gt;UserCourse -->
<g id="edge58" class="edge"><title>User&#45;&gt;UserCourse</title>
<path fill="none" stroke="#706282" d="M406.956,-234.482C420.5,-221.593 437.107,-206.571 445.476,-202 452.217,-198.318 487.129,-188.693 518.428,-180.467"/>
<ellipse fill="none" stroke="#706282" cx="403.875" cy="-237.439" rx="4.00002" ry="4.00002"/>
<polygon fill="#706282" stroke="#706282" points="518.747,-180.383 529.56,-182.208 523.585,-179.119 528.422,-177.854 528.422,-177.854 528.422,-177.854 523.585,-179.119 527.284,-173.501 518.747,-180.383 518.747,-180.383"/>
<text text-anchor="middle" x="508.762" y="-205.4" font-family="Times,serif" font-size="14.00">assigned_user_courses</text>
</g>
<!-- User&#45;&gt;UserCourse -->
<g id="edge64" class="edge"><title>User&#45;&gt;UserCourse</title>
<path fill="none" stroke="#66cdfb" d="M423.287,-253.472C472.293,-250.591 554.353,-242.461 573,-220 578.897,-212.897 579.868,-203.227 578.867,-194.092"/>
<ellipse fill="none" stroke="#66cdfb" cx="419.127" cy="-253.701" rx="4" ry="4"/>
<polygon fill="#66cdfb" stroke="#66cdfb" points="578.852,-194.007 581.483,-183.361 577.954,-189.088 577.057,-184.169 577.057,-184.169 577.057,-184.169 577.954,-189.088 572.63,-184.977 578.852,-194.007 578.852,-194.007"/>
</g>
<!-- User&#45;&gt;UserLesson -->
<g id="edge66" class="edge"><title>User&#45;&gt;UserLesson</title>
<path fill="none" stroke="#a41fb4" d="M422.777,-251.731C464.18,-247.356 533.099,-237.973 590,-220 616.624,-211.59 645.041,-198.084 666.589,-186.811"/>
<ellipse fill="none" stroke="#a41fb4" cx="418.604" cy="-252.158" rx="4" ry="4"/>
<polygon fill="#a41fb4" stroke="#a41fb4" points="666.847,-186.674 677.789,-185.95 671.262,-184.326 675.676,-181.977 675.676,-181.977 675.676,-181.977 671.262,-184.326 673.562,-178.004 666.847,-186.674 666.847,-186.674"/>
</g>
<!-- User&#45;&gt;UserQuestion -->
<g id="edge68" class="edge"><title>User&#45;&gt;UserQuestion</title>
<path fill="none" stroke="#e73849" d="M367.797,-233.325C359.127,-223.422 348.398,-211.754 338,-202 333.53,-197.808 328.607,-193.567 323.721,-189.553"/>
<ellipse fill="none" stroke="#e73849" cx="370.556" cy="-236.514" rx="4.00002" ry="4.00002"/>
<polygon fill="#e73849" stroke="#e73849" points="323.424,-189.315 318.434,-179.55 319.522,-186.188 315.62,-183.061 315.62,-183.061 315.62,-183.061 319.522,-186.188 312.806,-186.573 323.424,-189.315 323.424,-189.315"/>
</g>
<!-- User&#45;&gt;UserTesting -->
<g id="edge70" class="edge"><title>User&#45;&gt;UserTesting</title>
<path fill="none" stroke="#db4712" d="M353.951,-242.844C313.719,-227.583 244.474,-201.318 198.959,-184.053"/>
<ellipse fill="none" stroke="#db4712" cx="357.87" cy="-244.33" rx="4.00001" ry="4.00001"/>
<polygon fill="#db4712" stroke="#db4712" points="198.694,-183.953 190.94,-176.199 194.019,-182.18 189.344,-180.406 189.344,-180.406 189.344,-180.406 194.019,-182.18 187.748,-184.614 198.694,-183.953 198.694,-183.953"/>
</g>
<!-- UserAnswer -->
<g id="node17" class="node"><title>UserAnswer</title>
<ellipse fill="none" stroke="black" cx="779" cy="-651" rx="58.9618" ry="18"/>
<text text-anchor="middle" x="779" y="-645.4" font-family="Times,serif" font-size="14.00">UserAnswer</text>
</g>
</g>
</svg>
