<?xml version="1.0" encoding="UTF-8" standalone="no"?>
<!DOCTYPE svg PUBLIC "-//W3C//DTD SVG 1.1//EN"
 "http://www.w3.org/Graphics/SVG/1.1/DTD/svg11.dtd">
<!-- Generated by graphviz version 2.28.0 (20120603.1621)
 -->
<!-- Title: models_diagram Pages: 1 -->
<svg width="864pt" height="1446pt"
 viewBox="0.00 0.00 864.00 1446.00" xmlns="http://www.w3.org/2000/svg" xmlns:xlink="http://www.w3.org/1999/xlink">
<g id="graph1" class="graph" transform="scale(1 1) rotate(0) translate(4 1442)">
<title>models_diagram</title>
<polygon fill="white" stroke="white" points="-4,5 -4,-1442 861,-1442 861,5 -4,5"/>
<!-- _diagram_info -->
<g id="node1" class="node"><title>_diagram_info</title>
<text text-anchor="start" x="7.31226" y="-1396" font-family="Times,serif" font-size="13.00">Models diagram</text>
<text text-anchor="start" x="7.31226" y="-1380.4" font-family="Times,serif" font-size="13.00">Date: Jun 03 2012 &#45; 19:31</text>
<text text-anchor="start" x="7.31226" y="-1364.8" font-family="Times,serif" font-size="13.00">Migration version: 20120513135320</text>
<text text-anchor="start" x="7.31226" y="-1349.2" font-family="Times,serif" font-size="13.00">Generated by RailRoady 1.0.7</text>
<text text-anchor="start" x="7.31226" y="-1333.6" font-family="Times,serif" font-size="13.00">http://railroady.prestonlee.com</text>
</g>
<!-- Ability -->
<g id="node2" class="node"><title>Ability</title>
<polygon fill="none" stroke="black" points="225.166,-1345.2 225.166,-1394.8 280.834,-1394.8 280.834,-1345.2 225.166,-1345.2"/>
<text text-anchor="middle" x="253" y="-1376.8" font-family="Times,serif" font-size="14.00">Ability</text>
<polyline fill="none" stroke="black" points="225.166,-1370 280.834,-1370 "/>
<text text-anchor="middle" x="253" y="-1352" font-family="Times,serif" font-size="14.00"> </text>
</g>
<!-- Answer -->
<g id="node3" class="node"><title>Answer</title>
<polyline fill="none" stroke="black" points="168.495,-453.2 277.505,-453.2 "/>
<path fill="none" stroke="black" d="M277.505,-453.2C283.505,-453.2 289.505,-459.2 289.505,-465.2"/>
<polyline fill="none" stroke="black" points="289.505,-465.2 289.505,-574.8 "/>
<path fill="none" stroke="black" d="M289.505,-574.8C289.505,-580.8 283.505,-586.8 277.505,-586.8"/>
<polyline fill="none" stroke="black" points="277.505,-586.8 168.495,-586.8 "/>
<path fill="none" stroke="black" d="M168.495,-586.8C162.495,-586.8 156.495,-580.8 156.495,-574.8"/>
<polyline fill="none" stroke="black" points="156.495,-574.8 156.495,-465.2 "/>
<path fill="none" stroke="black" d="M156.495,-465.2C156.495,-459.2 162.495,-453.2 168.495,-453.2"/>
<text text-anchor="middle" x="223" y="-568.8" font-family="Times,serif" font-size="14.00">Answer</text>
<polyline fill="none" stroke="black" points="156.495,-562 289.505,-562 "/>
<text text-anchor="start" x="164.495" y="-544" font-family="Times,serif" font-size="14.00">name :string</text>
<text text-anchor="start" x="164.495" y="-527.2" font-family="Times,serif" font-size="14.00">body :text</text>
<text text-anchor="start" x="164.495" y="-510.4" font-family="Times,serif" font-size="14.00">created_at :datetime</text>
<text text-anchor="start" x="164.495" y="-493.6" font-family="Times,serif" font-size="14.00">updated_at :datetime</text>
<text text-anchor="start" x="164.495" y="-476.8" font-family="Times,serif" font-size="14.00">correct :boolean</text>
<text text-anchor="start" x="164.495" y="-460" font-family="Times,serif" font-size="14.00">number :integer</text>
</g>
<!-- Category -->
<g id="node4" class="node"><title>Category</title>
<polyline fill="none" stroke="black" points="310.495,-1320 419.505,-1320 "/>
<path fill="none" stroke="black" d="M419.505,-1320C425.505,-1320 431.505,-1326 431.505,-1332"/>
<polyline fill="none" stroke="black" points="431.505,-1332 431.505,-1408 "/>
<path fill="none" stroke="black" d="M431.505,-1408C431.505,-1414 425.505,-1420 419.505,-1420"/>
<polyline fill="none" stroke="black" points="419.505,-1420 310.495,-1420 "/>
<path fill="none" stroke="black" d="M310.495,-1420C304.495,-1420 298.495,-1414 298.495,-1408"/>
<polyline fill="none" stroke="black" points="298.495,-1408 298.495,-1332 "/>
<path fill="none" stroke="black" d="M298.495,-1332C298.495,-1326 304.495,-1320 310.495,-1320"/>
<text text-anchor="middle" x="365" y="-1402" font-family="Times,serif" font-size="14.00">Category</text>
<polyline fill="none" stroke="black" points="298.495,-1395.2 431.505,-1395.2 "/>
<text text-anchor="start" x="306.495" y="-1377.2" font-family="Times,serif" font-size="14.00">name :string</text>
<text text-anchor="start" x="306.495" y="-1360.4" font-family="Times,serif" font-size="14.00">description :text</text>
<text text-anchor="start" x="306.495" y="-1343.6" font-family="Times,serif" font-size="14.00">created_at :datetime</text>
<text text-anchor="start" x="306.495" y="-1326.8" font-family="Times,serif" font-size="14.00">updated_at :datetime</text>
</g>
<!-- Course -->
<g id="node8" class="node"><title>Course</title>
<polyline fill="none" stroke="black" points="310.495,-1129.2 419.505,-1129.2 "/>
<path fill="none" stroke="black" d="M419.505,-1129.2C425.505,-1129.2 431.505,-1135.2 431.505,-1141.2"/>
<polyline fill="none" stroke="black" points="431.505,-1141.2 431.505,-1250.8 "/>
<path fill="none" stroke="black" d="M431.505,-1250.8C431.505,-1256.8 425.505,-1262.8 419.505,-1262.8"/>
<polyline fill="none" stroke="black" points="419.505,-1262.8 310.495,-1262.8 "/>
<path fill="none" stroke="black" d="M310.495,-1262.8C304.495,-1262.8 298.495,-1256.8 298.495,-1250.8"/>
<polyline fill="none" stroke="black" points="298.495,-1250.8 298.495,-1141.2 "/>
<path fill="none" stroke="black" d="M298.495,-1141.2C298.495,-1135.2 304.495,-1129.2 310.495,-1129.2"/>
<text text-anchor="middle" x="365" y="-1244.8" font-family="Times,serif" font-size="14.00">Course</text>
<polyline fill="none" stroke="black" points="298.495,-1238 431.505,-1238 "/>
<text text-anchor="start" x="306.495" y="-1220" font-family="Times,serif" font-size="14.00">name :string</text>
<text text-anchor="start" x="306.495" y="-1203.2" font-family="Times,serif" font-size="14.00">content :text</text>
<text text-anchor="start" x="306.495" y="-1186.4" font-family="Times,serif" font-size="14.00">description :text</text>
<text text-anchor="start" x="306.495" y="-1169.6" font-family="Times,serif" font-size="14.00">total_time :integer</text>
<text text-anchor="start" x="306.495" y="-1152.8" font-family="Times,serif" font-size="14.00">created_at :datetime</text>
<text text-anchor="start" x="306.495" y="-1136" font-family="Times,serif" font-size="14.00">updated_at :datetime</text>
</g>
<!-- Category&#45;&gt;Course -->
<g id="edge2" class="edge"><title>Category&#45;&gt;Course</title>
<path fill="none" stroke="#28fed7" d="M365,-1311.69C365,-1299.36 365,-1286.15 365,-1273.24"/>
<ellipse fill="none" stroke="#28fed7" cx="365" cy="-1315.71" rx="4" ry="4"/>
<polygon fill="#28fed7" stroke="#28fed7" points="365,-1272.97 369.5,-1262.97 365,-1267.97 365,-1262.97 365,-1262.97 365,-1262.97 365,-1267.97 360.5,-1262.97 365,-1272.97 365,-1272.97"/>
</g>
<!-- Ckeditor::Asset -->
<g id="node5" class="node"><title>Ckeditor::Asset</title>
<polyline fill="none" stroke="black" points="550.046,-1303.2 683.954,-1303.2 "/>
<path fill="none" stroke="black" d="M683.954,-1303.2C689.954,-1303.2 695.954,-1309.2 695.954,-1315.2"/>
<polyline fill="none" stroke="black" points="695.954,-1315.2 695.954,-1424.8 "/>
<path fill="none" stroke="black" d="M695.954,-1424.8C695.954,-1430.8 689.954,-1436.8 683.954,-1436.8"/>
<polyline fill="none" stroke="black" points="683.954,-1436.8 550.046,-1436.8 "/>
<path fill="none" stroke="black" d="M550.046,-1436.8C544.046,-1436.8 538.046,-1430.8 538.046,-1424.8"/>
<polyline fill="none" stroke="black" points="538.046,-1424.8 538.046,-1315.2 "/>
<path fill="none" stroke="black" d="M538.046,-1315.2C538.046,-1309.2 544.046,-1303.2 550.046,-1303.2"/>
<text text-anchor="middle" x="617" y="-1418.8" font-family="Times,serif" font-size="14.00">Ckeditor::Asset</text>
<polyline fill="none" stroke="black" points="538.046,-1412 695.954,-1412 "/>
<text text-anchor="start" x="546.046" y="-1394" font-family="Times,serif" font-size="14.00">data_file_name :string</text>
<text text-anchor="start" x="546.046" y="-1377.2" font-family="Times,serif" font-size="14.00">data_content_type :string</text>
<text text-anchor="start" x="546.046" y="-1360.4" font-family="Times,serif" font-size="14.00">data_file_size :integer</text>
<text text-anchor="start" x="546.046" y="-1343.6" font-family="Times,serif" font-size="14.00">assetable_type :string</text>
<text text-anchor="start" x="546.046" y="-1326.8" font-family="Times,serif" font-size="14.00">created_at :datetime</text>
<text text-anchor="start" x="546.046" y="-1310" font-family="Times,serif" font-size="14.00">updated_at :datetime</text>
</g>
<!-- Ckeditor::AttachmentFile -->
<g id="node6" class="node"><title>Ckeditor::AttachmentFile</title>
<polyline fill="none" stroke="black" points="461.069,-1129.2 596.931,-1129.2 "/>
<path fill="none" stroke="black" d="M596.931,-1129.2C602.931,-1129.2 608.931,-1135.2 608.931,-1141.2"/>
<polyline fill="none" stroke="black" points="608.931,-1141.2 608.931,-1250.8 "/>
<path fill="none" stroke="black" d="M608.931,-1250.8C608.931,-1256.8 602.931,-1262.8 596.931,-1262.8"/>
<polyline fill="none" stroke="black" points="596.931,-1262.8 461.069,-1262.8 "/>
<path fill="none" stroke="black" d="M461.069,-1262.8C455.069,-1262.8 449.069,-1256.8 449.069,-1250.8"/>
<polyline fill="none" stroke="black" points="449.069,-1250.8 449.069,-1141.2 "/>
<path fill="none" stroke="black" d="M449.069,-1141.2C449.069,-1135.2 455.069,-1129.2 461.069,-1129.2"/>
<text text-anchor="middle" x="529" y="-1244.8" font-family="Times,serif" font-size="14.00">Ckeditor::AttachmentFile</text>
<polyline fill="none" stroke="black" points="449.069,-1238 608.931,-1238 "/>
<text text-anchor="start" x="457.069" y="-1220" font-family="Times,serif" font-size="14.00">data_file_name :string</text>
<text text-anchor="start" x="457.069" y="-1203.2" font-family="Times,serif" font-size="14.00">data_content_type :string</text>
<text text-anchor="start" x="457.069" y="-1186.4" font-family="Times,serif" font-size="14.00">data_file_size :integer</text>
<text text-anchor="start" x="457.069" y="-1169.6" font-family="Times,serif" font-size="14.00">assetable_type :string</text>
<text text-anchor="start" x="457.069" y="-1152.8" font-family="Times,serif" font-size="14.00">created_at :datetime</text>
<text text-anchor="start" x="457.069" y="-1136" font-family="Times,serif" font-size="14.00">updated_at :datetime</text>
</g>
<!-- Ckeditor::Asset&#45;&gt;Ckeditor::AttachmentFile -->
<g id="edge4" class="edge"><title>Ckeditor::Asset&#45;&gt;Ckeditor::AttachmentFile</title>
<path fill="none" stroke="black" d="M583.229,-1302.99C576.491,-1289.82 569.415,-1275.99 562.681,-1262.83"/>
</g>
<!-- Ckeditor::Picture -->
<g id="node7" class="node"><title>Ckeditor::Picture</title>
<polyline fill="none" stroke="black" points="639.046,-1129.2 772.954,-1129.2 "/>
<path fill="none" stroke="black" d="M772.954,-1129.2C778.954,-1129.2 784.954,-1135.2 784.954,-1141.2"/>
<polyline fill="none" stroke="black" points="784.954,-1141.2 784.954,-1250.8 "/>
<path fill="none" stroke="black" d="M784.954,-1250.8C784.954,-1256.8 778.954,-1262.8 772.954,-1262.8"/>
<polyline fill="none" stroke="black" points="772.954,-1262.8 639.046,-1262.8 "/>
<path fill="none" stroke="black" d="M639.046,-1262.8C633.046,-1262.8 627.046,-1256.8 627.046,-1250.8"/>
<polyline fill="none" stroke="black" points="627.046,-1250.8 627.046,-1141.2 "/>
<path fill="none" stroke="black" d="M627.046,-1141.2C627.046,-1135.2 633.046,-1129.2 639.046,-1129.2"/>
<text text-anchor="middle" x="706" y="-1244.8" font-family="Times,serif" font-size="14.00">Ckeditor::Picture</text>
<polyline fill="none" stroke="black" points="627.046,-1238 784.954,-1238 "/>
<text text-anchor="start" x="635.046" y="-1220" font-family="Times,serif" font-size="14.00">data_file_name :string</text>
<text text-anchor="start" x="635.046" y="-1203.2" font-family="Times,serif" font-size="14.00">data_content_type :string</text>
<text text-anchor="start" x="635.046" y="-1186.4" font-family="Times,serif" font-size="14.00">data_file_size :integer</text>
<text text-anchor="start" x="635.046" y="-1169.6" font-family="Times,serif" font-size="14.00">assetable_type :string</text>
<text text-anchor="start" x="635.046" y="-1152.8" font-family="Times,serif" font-size="14.00">created_at :datetime</text>
<text text-anchor="start" x="635.046" y="-1136" font-family="Times,serif" font-size="14.00">updated_at :datetime</text>
</g>
<!-- Ckeditor::Asset&#45;&gt;Ckeditor::Picture -->
<g id="edge6" class="edge"><title>Ckeditor::Asset&#45;&gt;Ckeditor::Picture</title>
<path fill="none" stroke="black" d="M651.155,-1302.99C657.969,-1289.82 665.125,-1275.99 671.936,-1262.83"/>
</g>
<!-- Document -->
<g id="node9" class="node"><title>Document</title>
<polyline fill="none" stroke="black" points="602.495,-816.6 711.505,-816.6 "/>
<path fill="none" stroke="black" d="M711.505,-816.6C717.505,-816.6 723.505,-822.6 723.505,-828.6"/>
<polyline fill="none" stroke="black" points="723.505,-828.6 723.505,-921.4 "/>
<path fill="none" stroke="black" d="M723.505,-921.4C723.505,-927.4 717.505,-933.4 711.505,-933.4"/>
<polyline fill="none" stroke="black" points="711.505,-933.4 602.495,-933.4 "/>
<path fill="none" stroke="black" d="M602.495,-933.4C596.495,-933.4 590.495,-927.4 590.495,-921.4"/>
<polyline fill="none" stroke="black" points="590.495,-921.4 590.495,-828.6 "/>
<path fill="none" stroke="black" d="M590.495,-828.6C590.495,-822.6 596.495,-816.6 602.495,-816.6"/>
<text text-anchor="middle" x="657" y="-915.4" font-family="Times,serif" font-size="14.00">Document</text>
<polyline fill="none" stroke="black" points="590.495,-908.6 723.505,-908.6 "/>
<text text-anchor="start" x="598.495" y="-890.6" font-family="Times,serif" font-size="14.00">name :string</text>
<text text-anchor="start" x="598.495" y="-873.8" font-family="Times,serif" font-size="14.00">url :string</text>
<text text-anchor="start" x="598.495" y="-857" font-family="Times,serif" font-size="14.00">created_at :datetime</text>
<text text-anchor="start" x="598.495" y="-840.2" font-family="Times,serif" font-size="14.00">updated_at :datetime</text>
<text text-anchor="start" x="598.495" y="-823.4" font-family="Times,serif" font-size="14.00">body :text</text>
</g>
<!-- Course&#45;&gt;Document -->
<g id="edge26" class="edge"><title>Course&#45;&gt;Document</title>
<path fill="none" stroke="#2c13c9" d="M440.922,-1128.23C508.052,-1098.13 549.098,-1138.42 599,-1090 637.991,-1052.16 651.618,-990.998 655.997,-943.729"/>
<polygon fill="#2c13c9" stroke="#2c13c9" points="440.704,-1128.33 429.744,-1128.68 436.211,-1130.53 431.719,-1132.72 431.719,-1132.72 431.719,-1132.72 436.211,-1130.53 433.694,-1136.77 440.704,-1128.33 440.704,-1128.33"/>
<polygon fill="#2c13c9" stroke="#2c13c9" points="656.013,-943.53 661.303,-933.925 656.415,-938.547 656.818,-933.563 656.818,-933.563 656.818,-933.563 656.415,-938.547 652.333,-933.201 656.013,-943.53 656.013,-943.53"/>
</g>
<!-- Lesson -->
<g id="node10" class="node"><title>Lesson</title>
<polyline fill="none" stroke="black" points="469.495,-972.6 578.505,-972.6 "/>
<path fill="none" stroke="black" d="M578.505,-972.6C584.505,-972.6 590.505,-978.6 590.505,-984.6"/>
<polyline fill="none" stroke="black" points="590.505,-984.6 590.505,-1077.4 "/>
<path fill="none" stroke="black" d="M590.505,-1077.4C590.505,-1083.4 584.505,-1089.4 578.505,-1089.4"/>
<polyline fill="none" stroke="black" points="578.505,-1089.4 469.495,-1089.4 "/>
<path fill="none" stroke="black" d="M469.495,-1089.4C463.495,-1089.4 457.495,-1083.4 457.495,-1077.4"/>
<polyline fill="none" stroke="black" points="457.495,-1077.4 457.495,-984.6 "/>
<path fill="none" stroke="black" d="M457.495,-984.6C457.495,-978.6 463.495,-972.6 469.495,-972.6"/>
<text text-anchor="middle" x="524" y="-1071.4" font-family="Times,serif" font-size="14.00">Lesson</text>
<polyline fill="none" stroke="black" points="457.495,-1064.6 590.505,-1064.6 "/>
<text text-anchor="start" x="465.495" y="-1046.6" font-family="Times,serif" font-size="14.00">name :string</text>
<text text-anchor="start" x="465.495" y="-1029.8" font-family="Times,serif" font-size="14.00">content :text</text>
<text text-anchor="start" x="465.495" y="-1013" font-family="Times,serif" font-size="14.00">description :text</text>
<text text-anchor="start" x="465.495" y="-996.2" font-family="Times,serif" font-size="14.00">created_at :datetime</text>
<text text-anchor="start" x="465.495" y="-979.4" font-family="Times,serif" font-size="14.00">updated_at :datetime</text>
</g>
<!-- Course&#45;&gt;Lesson -->
<g id="edge12" class="edge"><title>Course&#45;&gt;Lesson</title>
<path fill="none" stroke="#8ae058" d="M434.964,-1123.28C443.596,-1114.43 452.38,-1105.42 460.902,-1096.69"/>
<ellipse fill="none" stroke="#8ae058" cx="432.006" cy="-1126.31" rx="4.00002" ry="4.00002"/>
<polygon fill="#8ae058" stroke="#8ae058" points="461.006,-1096.58 471.21,-1092.56 464.497,-1093 467.989,-1089.42 467.989,-1089.42 467.989,-1089.42 464.497,-1093 464.768,-1086.28 461.006,-1096.58 461.006,-1096.58"/>
</g>
<!-- StudentGroup -->
<g id="node12" class="node"><title>StudentGroup</title>
<polyline fill="none" stroke="black" points="196.495,-107 305.505,-107 "/>
<path fill="none" stroke="black" d="M305.505,-107C311.505,-107 317.505,-113 317.505,-119"/>
<polyline fill="none" stroke="black" points="317.505,-119 317.505,-195 "/>
<path fill="none" stroke="black" d="M317.505,-195C317.505,-201 311.505,-207 305.505,-207"/>
<polyline fill="none" stroke="black" points="305.505,-207 196.495,-207 "/>
<path fill="none" stroke="black" d="M196.495,-207C190.495,-207 184.495,-201 184.495,-195"/>
<polyline fill="none" stroke="black" points="184.495,-195 184.495,-119 "/>
<path fill="none" stroke="black" d="M184.495,-119C184.495,-113 190.495,-107 196.495,-107"/>
<text text-anchor="middle" x="251" y="-189" font-family="Times,serif" font-size="14.00">StudentGroup</text>
<polyline fill="none" stroke="black" points="184.495,-182.2 317.505,-182.2 "/>
<text text-anchor="start" x="192.495" y="-164.2" font-family="Times,serif" font-size="14.00">name :string</text>
<text text-anchor="start" x="192.495" y="-147.4" font-family="Times,serif" font-size="14.00">group_type :string</text>
<text text-anchor="start" x="192.495" y="-130.6" font-family="Times,serif" font-size="14.00">created_at :datetime</text>
<text text-anchor="start" x="192.495" y="-113.8" font-family="Times,serif" font-size="14.00">updated_at :datetime</text>
</g>
<!-- Course&#45;&gt;StudentGroup -->
<g id="edge16" class="edge"><title>Course&#45;&gt;StudentGroup</title>
<path fill="none" stroke="#000c4c" d="M288.32,-1188.23C195.653,-1175.35 52,-1138.26 52,-1032 52,-1032 52,-1032 52,-296 52,-233.702 118.671,-197.288 174.833,-177.666"/>
<polygon fill="#000c4c" stroke="#000c4c" points="288.324,-1188.23 297.647,-1194 293.281,-1188.89 298.238,-1189.54 298.238,-1189.54 298.238,-1189.54 293.281,-1188.89 298.828,-1185.08 288.324,-1188.23 288.324,-1188.23"/>
<polygon fill="#000c4c" stroke="#000c4c" points="174.981,-177.616 185.894,-178.692 179.72,-176.021 184.459,-174.427 184.459,-174.427 184.459,-174.427 179.72,-176.021 183.024,-170.162 174.981,-177.616 174.981,-177.616"/>
</g>
<!-- StudentGroupCourse -->
<g id="node13" class="node"><title>StudentGroupCourse</title>
<polyline fill="none" stroke="black" points="23.8931,-0.8 134.107,-0.8 "/>
<path fill="none" stroke="black" d="M134.107,-0.8C140.107,-0.8 146.107,-6.8 146.107,-12.8"/>
<polyline fill="none" stroke="black" points="146.107,-12.8 146.107,-55.2 "/>
<path fill="none" stroke="black" d="M146.107,-55.2C146.107,-61.2 140.107,-67.2 134.107,-67.2"/>
<polyline fill="none" stroke="black" points="134.107,-67.2 23.8931,-67.2 "/>
<path fill="none" stroke="black" d="M23.8931,-67.2C17.8931,-67.2 11.8931,-61.2 11.8931,-55.2"/>
<polyline fill="none" stroke="black" points="11.8931,-55.2 11.8931,-12.8 "/>
<path fill="none" stroke="black" d="M11.8931,-12.8C11.8931,-6.8 17.8931,-0.8 23.8931,-0.8"/>
<text text-anchor="middle" x="79" y="-49.2" font-family="Times,serif" font-size="14.00">StudentGroupCourse</text>
<polyline fill="none" stroke="black" points="11.8931,-42.4 146.107,-42.4 "/>
<text text-anchor="start" x="19.8931" y="-24.4" font-family="Times,serif" font-size="14.00">created_at :datetime</text>
<text text-anchor="start" x="19.8931" y="-7.6" font-family="Times,serif" font-size="14.00">updated_at :datetime</text>
</g>
<!-- Course&#45;&gt;StudentGroupCourse -->
<g id="edge14" class="edge"><title>Course&#45;&gt;StudentGroupCourse</title>
<path fill="none" stroke="#c33708" d="M289.935,-1192.36C186.826,-1184.26 14,-1152.69 14,-1032 14,-1032 14,-1032 14,-156 14,-126.82 28.8513,-97.8899 44.3561,-75.6376"/>
<ellipse fill="none" stroke="#c33708" cx="294.164" cy="-1192.67" rx="4" ry="4"/>
<polygon fill="#c33708" stroke="#c33708" points="44.4257,-75.5417 53.9423,-70.0934 47.3633,-71.4957 50.3008,-67.4496 50.3008,-67.4496 50.3008,-67.4496 47.3633,-71.4957 46.6594,-64.8058 44.4257,-75.5417 44.4257,-75.5417"/>
</g>
<!-- Testing -->
<g id="node15" class="node"><title>Testing</title>
<polyline fill="none" stroke="black" points="182.495,-816.6 291.505,-816.6 "/>
<path fill="none" stroke="black" d="M291.505,-816.6C297.505,-816.6 303.505,-822.6 303.505,-828.6"/>
<polyline fill="none" stroke="black" points="303.505,-828.6 303.505,-921.4 "/>
<path fill="none" stroke="black" d="M303.505,-921.4C303.505,-927.4 297.505,-933.4 291.505,-933.4"/>
<polyline fill="none" stroke="black" points="291.505,-933.4 182.495,-933.4 "/>
<path fill="none" stroke="black" d="M182.495,-933.4C176.495,-933.4 170.495,-927.4 170.495,-921.4"/>
<polyline fill="none" stroke="black" points="170.495,-921.4 170.495,-828.6 "/>
<path fill="none" stroke="black" d="M170.495,-828.6C170.495,-822.6 176.495,-816.6 182.495,-816.6"/>
<text text-anchor="middle" x="237" y="-915.4" font-family="Times,serif" font-size="14.00">Testing</text>
<polyline fill="none" stroke="black" points="170.495,-908.6 303.505,-908.6 "/>
<text text-anchor="start" x="178.495" y="-890.6" font-family="Times,serif" font-size="14.00">name :string</text>
<text text-anchor="start" x="178.495" y="-873.8" font-family="Times,serif" font-size="14.00">description :text</text>
<text text-anchor="start" x="178.495" y="-857" font-family="Times,serif" font-size="14.00">content :text</text>
<text text-anchor="start" x="178.495" y="-840.2" font-family="Times,serif" font-size="14.00">created_at :datetime</text>
<text text-anchor="start" x="178.495" y="-823.4" font-family="Times,serif" font-size="14.00">updated_at :datetime</text>
</g>
<!-- Course&#45;&gt;Testing -->
<g id="edge20" class="edge"><title>Course&#45;&gt;Testing</title>
<path fill="none" stroke="#3c3b1a" d="M322.456,-1119.62C320.908,-1116.39 319.416,-1113.18 318,-1110 293.661,-1055.38 271.856,-991.024 257.018,-943.644"/>
<polygon fill="#3c3b1a" stroke="#3c3b1a" points="322.526,-1119.77 322.911,-1130.72 324.737,-1124.25 326.947,-1128.74 326.947,-1128.74 326.947,-1128.74 324.737,-1124.25 330.983,-1126.75 322.526,-1119.77 322.526,-1119.77"/>
<polygon fill="#3c3b1a" stroke="#3c3b1a" points="256.927,-943.35 258.256,-932.465 255.443,-938.576 253.959,-933.801 253.959,-933.801 253.959,-933.801 255.443,-938.576 249.662,-935.136 256.927,-943.35 256.927,-943.35"/>
</g>
<!-- User -->
<g id="node16" class="node"><title>User</title>
<polyline fill="none" stroke="black" points="357.722,-402.8 538.278,-402.8 "/>
<path fill="none" stroke="black" d="M538.278,-402.8C544.278,-402.8 550.278,-408.8 550.278,-414.8"/>
<polyline fill="none" stroke="black" points="550.278,-414.8 550.278,-625.2 "/>
<path fill="none" stroke="black" d="M550.278,-625.2C550.278,-631.2 544.278,-637.2 538.278,-637.2"/>
<polyline fill="none" stroke="black" points="538.278,-637.2 357.722,-637.2 "/>
<path fill="none" stroke="black" d="M357.722,-637.2C351.722,-637.2 345.722,-631.2 345.722,-625.2"/>
<polyline fill="none" stroke="black" points="345.722,-625.2 345.722,-414.8 "/>
<path fill="none" stroke="black" d="M345.722,-414.8C345.722,-408.8 351.722,-402.8 357.722,-402.8"/>
<text text-anchor="middle" x="448" y="-619.2" font-family="Times,serif" font-size="14.00">User</text>
<polyline fill="none" stroke="black" points="345.722,-612.4 550.278,-612.4 "/>
<text text-anchor="start" x="353.722" y="-594.4" font-family="Times,serif" font-size="14.00">email :string</text>
<text text-anchor="start" x="353.722" y="-577.6" font-family="Times,serif" font-size="14.00">encrypted_password :string</text>
<text text-anchor="start" x="353.722" y="-560.8" font-family="Times,serif" font-size="14.00">reset_password_token :string</text>
<text text-anchor="start" x="353.722" y="-544" font-family="Times,serif" font-size="14.00">reset_password_sent_at :datetime</text>
<text text-anchor="start" x="353.722" y="-527.2" font-family="Times,serif" font-size="14.00">remember_created_at :datetime</text>
<text text-anchor="start" x="353.722" y="-510.4" font-family="Times,serif" font-size="14.00">current_sign_in_at :datetime</text>
<text text-anchor="start" x="353.722" y="-493.6" font-family="Times,serif" font-size="14.00">last_sign_in_at :datetime</text>
<text text-anchor="start" x="353.722" y="-476.8" font-family="Times,serif" font-size="14.00">current_sign_in_ip :string</text>
<text text-anchor="start" x="353.722" y="-460" font-family="Times,serif" font-size="14.00">last_sign_in_ip :string</text>
<text text-anchor="start" x="353.722" y="-443.2" font-family="Times,serif" font-size="14.00">created_at :datetime</text>
<text text-anchor="start" x="353.722" y="-426.4" font-family="Times,serif" font-size="14.00">updated_at :datetime</text>
<text text-anchor="start" x="353.722" y="-409.6" font-family="Times,serif" font-size="14.00">role :string</text>
</g>
<!-- Course&#45;&gt;User -->
<g id="edge10" class="edge"><title>Course&#45;&gt;User</title>
<path fill="none" stroke="#b2b2c9" d="M346.359,-1118.91C330.781,-1040.63 316.177,-916.306 351,-816 358.057,-795.672 371.415,-797.265 381,-778 401.198,-737.403 415.765,-690.072 426.046,-647.171"/>
<polygon fill="#b2b2c9" stroke="#b2b2c9" points="346.454,-1119.37 344.05,-1130.07 347.456,-1124.27 348.459,-1129.17 348.459,-1129.17 348.459,-1129.17 347.456,-1124.27 352.868,-1128.27 346.454,-1119.37 346.454,-1119.37"/>
<polygon fill="#b2b2c9" stroke="#b2b2c9" points="426.094,-646.969 432.753,-638.257 427.233,-642.1 428.372,-637.232 428.372,-637.232 428.372,-637.232 427.233,-642.1 423.99,-636.207 426.094,-646.969 426.094,-646.969"/>
</g>
<!-- UserCourse -->
<g id="node18" class="node"><title>UserCourse</title>
<polyline fill="none" stroke="black" points="584.495,-255.4 693.505,-255.4 "/>
<path fill="none" stroke="black" d="M693.505,-255.4C699.505,-255.4 705.505,-261.4 705.505,-267.4"/>
<polyline fill="none" stroke="black" points="705.505,-267.4 705.505,-326.6 "/>
<path fill="none" stroke="black" d="M705.505,-326.6C705.505,-332.6 699.505,-338.6 693.505,-338.6"/>
<polyline fill="none" stroke="black" points="693.505,-338.6 584.495,-338.6 "/>
<path fill="none" stroke="black" d="M584.495,-338.6C578.495,-338.6 572.495,-332.6 572.495,-326.6"/>
<polyline fill="none" stroke="black" points="572.495,-326.6 572.495,-267.4 "/>
<path fill="none" stroke="black" d="M572.495,-267.4C572.495,-261.4 578.495,-255.4 584.495,-255.4"/>
<text text-anchor="middle" x="639" y="-320.6" font-family="Times,serif" font-size="14.00">UserCourse</text>
<polyline fill="none" stroke="black" points="572.495,-313.8 705.505,-313.8 "/>
<text text-anchor="start" x="580.495" y="-295.8" font-family="Times,serif" font-size="14.00">passed :boolean</text>
<text text-anchor="start" x="580.495" y="-279" font-family="Times,serif" font-size="14.00">created_at :datetime</text>
<text text-anchor="start" x="580.495" y="-262.2" font-family="Times,serif" font-size="14.00">updated_at :datetime</text>
</g>
<!-- Course&#45;&gt;UserCourse -->
<g id="edge8" class="edge"><title>Course&#45;&gt;UserCourse</title>
<path fill="none" stroke="#05f896" d="M438.661,-1128.62C439.107,-1128.41 439.553,-1128.2 440,-1128 521.983,-1090.77 569.782,-1147.59 639,-1090 701.05,-1038.37 710.564,-1011.82 732,-934 790.684,-720.959 702.934,-456.956 660.179,-348.305"/>
<ellipse fill="none" stroke="#05f896" cx="435.072" cy="-1130.48" rx="4.00002" ry="4.00002"/>
<polygon fill="#05f896" stroke="#05f896" points="660.133,-348.189 660.617,-337.234 658.284,-343.543 656.436,-338.897 656.436,-338.897 656.436,-338.897 658.284,-343.543 652.255,-340.561 660.133,-348.189 660.133,-348.189"/>
</g>
<!-- UserLesson -->
<g id="node19" class="node"><title>UserLesson</title>
<polyline fill="none" stroke="black" points="735.495,-247 844.505,-247 "/>
<path fill="none" stroke="black" d="M844.505,-247C850.505,-247 856.505,-253 856.505,-259"/>
<polyline fill="none" stroke="black" points="856.505,-259 856.505,-335 "/>
<path fill="none" stroke="black" d="M856.505,-335C856.505,-341 850.505,-347 844.505,-347"/>
<polyline fill="none" stroke="black" points="844.505,-347 735.495,-347 "/>
<path fill="none" stroke="black" d="M735.495,-347C729.495,-347 723.495,-341 723.495,-335"/>
<polyline fill="none" stroke="black" points="723.495,-335 723.495,-259 "/>
<path fill="none" stroke="black" d="M723.495,-259C723.495,-253 729.495,-247 735.495,-247"/>
<text text-anchor="middle" x="790" y="-329" font-family="Times,serif" font-size="14.00">UserLesson</text>
<polyline fill="none" stroke="black" points="723.495,-322.2 856.505,-322.2 "/>
<text text-anchor="start" x="731.495" y="-304.2" font-family="Times,serif" font-size="14.00">passed :boolean</text>
<text text-anchor="start" x="731.495" y="-287.4" font-family="Times,serif" font-size="14.00">percent :integer</text>
<text text-anchor="start" x="731.495" y="-270.6" font-family="Times,serif" font-size="14.00">created_at :datetime</text>
<text text-anchor="start" x="731.495" y="-253.8" font-family="Times,serif" font-size="14.00">updated_at :datetime</text>
</g>
<!-- Course&#45;&gt;UserLesson -->
<g id="edge22" class="edge"><title>Course&#45;&gt;UserLesson</title>
<path fill="none" stroke="#4d3ee6" d="M439.236,-1128.34C439.491,-1128.23 439.745,-1128.11 440,-1128 514.422,-1095.31 542.1,-1124.93 622,-1110 654.646,-1103.9 663.504,-1103.15 694,-1090 739.773,-1070.26 790,-1081.85 790,-1032 790,-1032 790,-1032 790,-519 790,-464.183 790,-401.718 790,-357.215"/>
<ellipse fill="none" stroke="#4d3ee6" cx="435.527" cy="-1130.19" rx="4.00002" ry="4.00002"/>
<polygon fill="#4d3ee6" stroke="#4d3ee6" points="790,-357.155 794.5,-347.155 790,-352.155 790,-347.155 790,-347.155 790,-347.155 790,-352.155 785.5,-347.155 790,-357.155 790,-357.155"/>
</g>
<!-- UserTesting -->
<g id="node21" class="node"><title>UserTesting</title>
<polyline fill="none" stroke="black" points="92.4946,-247 201.505,-247 "/>
<path fill="none" stroke="black" d="M201.505,-247C207.505,-247 213.505,-253 213.505,-259"/>
<polyline fill="none" stroke="black" points="213.505,-259 213.505,-335 "/>
<path fill="none" stroke="black" d="M213.505,-335C213.505,-341 207.505,-347 201.505,-347"/>
<polyline fill="none" stroke="black" points="201.505,-347 92.4946,-347 "/>
<path fill="none" stroke="black" d="M92.4946,-347C86.4946,-347 80.4946,-341 80.4946,-335"/>
<polyline fill="none" stroke="black" points="80.4946,-335 80.4946,-259 "/>
<path fill="none" stroke="black" d="M80.4946,-259C80.4946,-253 86.4946,-247 92.4946,-247"/>
<text text-anchor="middle" x="147" y="-329" font-family="Times,serif" font-size="14.00">UserTesting</text>
<polyline fill="none" stroke="black" points="80.4946,-322.2 213.505,-322.2 "/>
<text text-anchor="start" x="88.4946" y="-304.2" font-family="Times,serif" font-size="14.00">passed :boolean</text>
<text text-anchor="start" x="88.4946" y="-287.4" font-family="Times,serif" font-size="14.00">created_at :datetime</text>
<text text-anchor="start" x="88.4946" y="-270.6" font-family="Times,serif" font-size="14.00">updated_at :datetime</text>
<text text-anchor="start" x="88.4946" y="-253.8" font-family="Times,serif" font-size="14.00">procent :integer</text>
</g>
<!-- Course&#45;&gt;UserTesting -->
<g id="edge18" class="edge"><title>Course&#45;&gt;UserTesting</title>
<path fill="none" stroke="#7be582" d="M290.179,-1183.58C208.747,-1166.41 90,-1125.36 90,-1032 90,-1032 90,-1032 90,-519 90,-462.638 107.598,-400.681 123.237,-356.746"/>
<ellipse fill="none" stroke="#7be582" cx="294.511" cy="-1184.47" rx="4.00001" ry="4.00001"/>
<polygon fill="#7be582" stroke="#7be582" points="123.328,-356.496 130.973,-348.634 125.036,-351.796 126.743,-347.097 126.743,-347.097 126.743,-347.097 125.036,-351.796 122.514,-345.56 123.328,-356.496 123.328,-356.496"/>
</g>
<!-- Video -->
<g id="node22" class="node"><title>Video</title>
<polyline fill="none" stroke="black" points="372.322,-816.6 483.678,-816.6 "/>
<path fill="none" stroke="black" d="M483.678,-816.6C489.678,-816.6 495.678,-822.6 495.678,-828.6"/>
<polyline fill="none" stroke="black" points="495.678,-828.6 495.678,-921.4 "/>
<path fill="none" stroke="black" d="M495.678,-921.4C495.678,-927.4 489.678,-933.4 483.678,-933.4"/>
<polyline fill="none" stroke="black" points="483.678,-933.4 372.322,-933.4 "/>
<path fill="none" stroke="black" d="M372.322,-933.4C366.322,-933.4 360.322,-927.4 360.322,-921.4"/>
<polyline fill="none" stroke="black" points="360.322,-921.4 360.322,-828.6 "/>
<path fill="none" stroke="black" d="M360.322,-828.6C360.322,-822.6 366.322,-816.6 372.322,-816.6"/>
<text text-anchor="middle" x="428" y="-915.4" font-family="Times,serif" font-size="14.00">Video</text>
<polyline fill="none" stroke="black" points="360.322,-908.6 495.678,-908.6 "/>
<text text-anchor="start" x="368.322" y="-890.6" font-family="Times,serif" font-size="14.00">title :string</text>
<text text-anchor="start" x="368.322" y="-873.8" font-family="Times,serif" font-size="14.00">description :text</text>
<text text-anchor="start" x="368.322" y="-857" font-family="Times,serif" font-size="14.00">is_complete :boolean</text>
<text text-anchor="start" x="368.322" y="-840.2" font-family="Times,serif" font-size="14.00">created_at :datetime</text>
<text text-anchor="start" x="368.322" y="-823.4" font-family="Times,serif" font-size="14.00">updated_at :datetime</text>
</g>
<!-- Course&#45;&gt;Video -->
<g id="edge24" class="edge"><title>Course&#45;&gt;Video</title>
<path fill="none" stroke="#31b9a7" d="M380.035,-1118.87C390.575,-1065.5 404.537,-994.805 414.678,-943.458"/>
<polygon fill="#31b9a7" stroke="#31b9a7" points="379.991,-1119.09 373.639,-1128.03 379.022,-1124 378.054,-1128.9 378.054,-1128.9 378.054,-1128.9 379.022,-1124 382.468,-1129.77 379.991,-1119.09 379.991,-1119.09"/>
<polygon fill="#31b9a7" stroke="#31b9a7" points="414.715,-943.267 421.067,-934.329 415.684,-938.362 416.653,-933.457 416.653,-933.457 416.653,-933.457 415.684,-938.362 412.238,-932.585 414.715,-943.267 414.715,-943.267"/>
</g>
<!-- Lesson&#45;&gt;Document -->
<g id="edge36" class="edge"><title>Lesson&#45;&gt;Document</title>
<path fill="none" stroke="#dcb9cf" d="M579.318,-965.948C586.339,-957.818 593.531,-949.49 600.57,-941.34"/>
<ellipse fill="none" stroke="#dcb9cf" cx="576.517" cy="-969.191" rx="4.00002" ry="4.00002"/>
<polygon fill="#dcb9cf" stroke="#dcb9cf" points="600.724,-941.162 610.666,-936.535 603.992,-937.378 607.26,-933.594 607.26,-933.594 607.26,-933.594 603.992,-937.378 603.854,-930.652 600.724,-941.162 600.724,-941.162"/>
</g>
<!-- Lesson&#45;&gt;Testing -->
<g id="edge32" class="edge"><title>Lesson&#45;&gt;Testing</title>
<path fill="none" stroke="#900b5e" d="M450.284,-990.445C408.052,-967.784 355.161,-939.403 312.615,-916.574"/>
<ellipse fill="none" stroke="#900b5e" cx="453.91" cy="-992.391" rx="4.00002" ry="4.00002"/>
<polygon fill="#900b5e" stroke="#900b5e" points="312.512,-916.519 305.828,-907.825 308.106,-914.155 303.7,-911.79 303.7,-911.79 303.7,-911.79 308.106,-914.155 301.573,-915.756 312.512,-916.519 312.512,-916.519"/>
</g>
<!-- Lesson&#45;&gt;User -->
<g id="edge30" class="edge"><title>Lesson&#45;&gt;User</title>
<path fill="none" stroke="#788215" d="M519.293,-962.001C515.967,-919.845 510.874,-864.64 504,-816 496.136,-760.356 484.965,-699.264 474.666,-647.179"/>
<polygon fill="#788215" stroke="#788215" points="519.307,-962.182 515.593,-972.5 519.693,-967.167 520.08,-972.152 520.08,-972.152 520.08,-972.152 519.693,-967.167 524.566,-971.804 519.307,-962.182 519.307,-962.182"/>
<polygon fill="#788215" stroke="#788215" points="474.637,-647.033 477.101,-636.348 473.662,-642.129 472.687,-637.225 472.687,-637.225 472.687,-637.225 473.662,-642.129 468.274,-638.103 474.637,-647.033 474.637,-647.033"/>
</g>
<!-- Lesson&#45;&gt;UserLesson -->
<g id="edge28" class="edge"><title>Lesson&#45;&gt;UserLesson</title>
<path fill="none" stroke="#a7017e" d="M537.434,-964.727C547.242,-921.716 562.109,-864.577 581,-816 613.351,-732.811 638.82,-720.033 674,-638 715.294,-541.709 752.344,-425.386 772.938,-356.784"/>
<ellipse fill="none" stroke="#a7017e" cx="536.541" cy="-968.686" rx="4.00001" ry="4.00001"/>
<polygon fill="#a7017e" stroke="#a7017e" points="772.993,-356.598 780.167,-348.305 774.424,-351.808 775.855,-347.017 775.855,-347.017 775.855,-347.017 774.424,-351.808 771.544,-345.729 772.993,-356.598 772.993,-356.598"/>
</g>
<!-- Lesson&#45;&gt;Video -->
<g id="edge34" class="edge"><title>Lesson&#45;&gt;Video</title>
<path fill="none" stroke="#ebd632" d="M483.696,-965.346C478.974,-957.77 474.149,-950.031 469.412,-942.432"/>
<ellipse fill="none" stroke="#ebd632" cx="485.864" cy="-968.823" rx="4.00002" ry="4.00002"/>
<polygon fill="#ebd632" stroke="#ebd632" points="469.193,-942.08 467.721,-931.213 466.548,-937.837 463.903,-933.594 463.903,-933.594 463.903,-933.594 466.548,-937.837 460.084,-935.974 469.193,-942.08 469.193,-942.08"/>
</g>
<!-- Question -->
<g id="node11" class="node"><title>Question</title>
<polyline fill="none" stroke="black" points="218.495,-677 327.505,-677 "/>
<path fill="none" stroke="black" d="M327.505,-677C333.505,-677 339.505,-683 339.505,-689"/>
<polyline fill="none" stroke="black" points="339.505,-689 339.505,-765 "/>
<path fill="none" stroke="black" d="M339.505,-765C339.505,-771 333.505,-777 327.505,-777"/>
<polyline fill="none" stroke="black" points="327.505,-777 218.495,-777 "/>
<path fill="none" stroke="black" d="M218.495,-777C212.495,-777 206.495,-771 206.495,-765"/>
<polyline fill="none" stroke="black" points="206.495,-765 206.495,-689 "/>
<path fill="none" stroke="black" d="M206.495,-689C206.495,-683 212.495,-677 218.495,-677"/>
<text text-anchor="middle" x="273" y="-759" font-family="Times,serif" font-size="14.00">Question</text>
<polyline fill="none" stroke="black" points="206.495,-752.2 339.505,-752.2 "/>
<text text-anchor="start" x="214.495" y="-734.2" font-family="Times,serif" font-size="14.00">name :string</text>
<text text-anchor="start" x="214.495" y="-717.4" font-family="Times,serif" font-size="14.00">body :text</text>
<text text-anchor="start" x="214.495" y="-700.6" font-family="Times,serif" font-size="14.00">created_at :datetime</text>
<text text-anchor="start" x="214.495" y="-683.8" font-family="Times,serif" font-size="14.00">updated_at :datetime</text>
</g>
<!-- Question&#45;&gt;Answer -->
<g id="edge38" class="edge"><title>Question&#45;&gt;Answer</title>
<path fill="none" stroke="#81a5b1" d="M259.058,-668.836C253.644,-646.642 247.365,-620.897 241.578,-597.171"/>
<ellipse fill="none" stroke="#81a5b1" cx="260.076" cy="-673.011" rx="4.00001" ry="4.00001"/>
<polygon fill="#81a5b1" stroke="#81a5b1" points="241.502,-596.858 243.504,-586.077 240.317,-592.001 239.132,-587.143 239.132,-587.143 239.132,-587.143 240.317,-592.001 234.761,-588.209 241.502,-596.858 241.502,-596.858"/>
</g>
<!-- Question&#45;&gt;User -->
<g id="edge42" class="edge"><title>Question&#45;&gt;User</title>
<path fill="none" stroke="#f4151f" d="M321.592,-669.078C328.098,-661.456 334.965,-653.413 341.998,-645.173"/>
<polygon fill="#f4151f" stroke="#f4151f" points="321.41,-669.292 311.494,-673.976 318.163,-673.095 314.917,-676.897 314.917,-676.897 314.917,-676.897 318.163,-673.095 318.339,-679.819 321.41,-669.292 321.41,-669.292"/>
<polygon fill="#f4151f" stroke="#f4151f" points="342.007,-645.164 351.922,-640.48 345.253,-641.361 348.499,-637.558 348.499,-637.558 348.499,-637.558 345.253,-641.361 345.077,-634.636 342.007,-645.164 342.007,-645.164"/>
</g>
<!-- UserQuestion -->
<g id="node20" class="node"><title>UserQuestion</title>
<polyline fill="none" stroke="black" points="243.495,-255.4 352.505,-255.4 "/>
<path fill="none" stroke="black" d="M352.505,-255.4C358.505,-255.4 364.505,-261.4 364.505,-267.4"/>
<polyline fill="none" stroke="black" points="364.505,-267.4 364.505,-326.6 "/>
<path fill="none" stroke="black" d="M364.505,-326.6C364.505,-332.6 358.505,-338.6 352.505,-338.6"/>
<polyline fill="none" stroke="black" points="352.505,-338.6 243.495,-338.6 "/>
<path fill="none" stroke="black" d="M243.495,-338.6C237.495,-338.6 231.495,-332.6 231.495,-326.6"/>
<polyline fill="none" stroke="black" points="231.495,-326.6 231.495,-267.4 "/>
<path fill="none" stroke="black" d="M231.495,-267.4C231.495,-261.4 237.495,-255.4 243.495,-255.4"/>
<text text-anchor="middle" x="298" y="-320.6" font-family="Times,serif" font-size="14.00">UserQuestion</text>
<polyline fill="none" stroke="black" points="231.495,-313.8 364.505,-313.8 "/>
<text text-anchor="start" x="239.495" y="-295.8" font-family="Times,serif" font-size="14.00">correct :boolean</text>
<text text-anchor="start" x="239.495" y="-279" font-family="Times,serif" font-size="14.00">created_at :datetime</text>
<text text-anchor="start" x="239.495" y="-262.2" font-family="Times,serif" font-size="14.00">updated_at :datetime</text>
</g>
<!-- Question&#45;&gt;UserQuestion -->
<g id="edge40" class="edge"><title>Question&#45;&gt;UserQuestion</title>
<path fill="none" stroke="#17d0e3" d="M291.738,-668.698C294.34,-658.573 296.6,-648.054 298,-638 312.165,-536.306 307.081,-415.837 302.366,-349.057"/>
<ellipse fill="none" stroke="#17d0e3" cx="290.623" cy="-672.854" rx="4.00001" ry="4.00001"/>
<polygon fill="#17d0e3" stroke="#17d0e3" points="302.346,-348.785 306.103,-338.483 301.981,-343.798 301.615,-338.812 301.615,-338.812 301.615,-338.812 301.981,-343.798 297.127,-339.14 302.346,-348.785 302.346,-348.785"/>
</g>
<!-- StudentGroup&#45;&gt;StudentGroupCourse -->
<g id="edge46" class="edge"><title>StudentGroup&#45;&gt;StudentGroupCourse</title>
<path fill="none" stroke="#678ff9" d="M177.463,-104.268C162.665,-93.8572 147.363,-83.0928 133.362,-73.2429"/>
<ellipse fill="none" stroke="#678ff9" cx="180.736" cy="-106.57" rx="4.00002" ry="4.00002"/>
<polygon fill="#678ff9" stroke="#678ff9" points="133.007,-72.9933 127.417,-63.559 128.918,-70.1164 124.828,-67.2395 124.828,-67.2395 124.828,-67.2395 128.918,-70.1164 122.239,-70.92 133.007,-72.9933 133.007,-72.9933"/>
</g>
<!-- StudentGroup&#45;&gt;User -->
<g id="edge44" class="edge"><title>StudentGroup&#45;&gt;User</title>
<path fill="none" stroke="#1b23c0" d="M324.315,-198.703C342.426,-211.755 360.263,-227.66 373,-246 390.064,-270.571 407.857,-333.496 421.828,-392.748"/>
<ellipse fill="none" stroke="#1b23c0" cx="320.915" cy="-196.32" rx="4.00002" ry="4.00002"/>
<polygon fill="#1b23c0" stroke="#1b23c0" points="421.855,-392.863 419.742,-403.624 422.99,-397.733 424.125,-402.602 424.125,-402.602 424.125,-402.602 422.99,-397.733 428.507,-401.58 421.855,-392.863 421.855,-392.863"/>
</g>
<!-- Teacher -->
<g id="node14" class="node"><title>Teacher</title>
<polyline fill="none" stroke="black" points="433.495,-247 542.505,-247 "/>
<path fill="none" stroke="black" d="M542.505,-247C548.505,-247 554.505,-253 554.505,-259"/>
<polyline fill="none" stroke="black" points="554.505,-259 554.505,-335 "/>
<path fill="none" stroke="black" d="M554.505,-335C554.505,-341 548.505,-347 542.505,-347"/>
<polyline fill="none" stroke="black" points="542.505,-347 433.495,-347 "/>
<path fill="none" stroke="black" d="M433.495,-347C427.495,-347 421.495,-341 421.495,-335"/>
<polyline fill="none" stroke="black" points="421.495,-335 421.495,-259 "/>
<path fill="none" stroke="black" d="M421.495,-259C421.495,-253 427.495,-247 433.495,-247"/>
<text text-anchor="middle" x="488" y="-329" font-family="Times,serif" font-size="14.00">Teacher</text>
<polyline fill="none" stroke="black" points="421.495,-322.2 554.505,-322.2 "/>
<text text-anchor="start" x="429.495" y="-304.2" font-family="Times,serif" font-size="14.00">name :string</text>
<text text-anchor="start" x="429.495" y="-287.4" font-family="Times,serif" font-size="14.00">description :text</text>
<text text-anchor="start" x="429.495" y="-270.6" font-family="Times,serif" font-size="14.00">created_at :datetime</text>
<text text-anchor="start" x="429.495" y="-253.8" font-family="Times,serif" font-size="14.00">updated_at :datetime</text>
</g>
<!-- Teacher&#45;&gt;StudentGroup -->
<g id="edge48" class="edge"><title>Teacher&#45;&gt;StudentGroup</title>
<path fill="none" stroke="#0db3b8" d="M429.184,-241.684C421.949,-236.064 414.466,-230.7 407,-226 382.283,-210.439 353.392,-196.756 327.237,-185.821"/>
<ellipse fill="none" stroke="#0db3b8" cx="432.621" cy="-244.417" rx="4.00002" ry="4.00002"/>
<polygon fill="#0db3b8" stroke="#0db3b8" points="326.987,-185.718 319.447,-177.755 322.362,-183.818 317.737,-181.918 317.737,-181.918 317.737,-181.918 322.362,-183.818 316.027,-186.08 326.987,-185.718 326.987,-185.718"/>
</g>
<!-- Testing&#45;&gt;Answer -->
<g id="edge52" class="edge"><title>Testing&#45;&gt;Answer</title>
<path fill="none" stroke="#f1aa7b" d="M205.23,-807.068C201.837,-797.496 198.925,-787.627 197,-778 184.962,-717.809 193.229,-648.514 203.53,-597.057"/>
<polygon fill="#f1aa7b" stroke="#f1aa7b" points="205.263,-807.156 204.549,-818.099 207.014,-811.84 208.764,-816.523 208.764,-816.523 208.764,-816.523 207.014,-811.84 212.98,-814.947 205.263,-807.156 205.263,-807.156"/>
<polygon fill="#f1aa7b" stroke="#f1aa7b" points="203.582,-596.803 210.018,-587.925 204.597,-591.907 205.612,-587.011 205.612,-587.011 205.612,-587.011 204.597,-591.907 201.205,-586.098 203.582,-596.803 203.582,-596.803"/>
</g>
<!-- Testing&#45;&gt;Question -->
<g id="edge50" class="edge"><title>Testing&#45;&gt;Question</title>
<path fill="none" stroke="#3c2a96" d="M253.185,-808.36C254.916,-801.339 256.67,-794.227 258.382,-787.286"/>
<ellipse fill="none" stroke="#3c2a96" cx="252.186" cy="-812.413" rx="4.00001" ry="4.00001"/>
<polygon fill="#3c2a96" stroke="#3c2a96" points="258.457,-786.979 265.22,-778.347 259.654,-782.125 260.851,-777.27 260.851,-777.27 260.851,-777.27 259.654,-782.125 256.482,-776.193 258.457,-786.979 258.457,-786.979"/>
</g>
<!-- Testing&#45;&gt;User -->
<g id="edge56" class="edge"><title>Testing&#45;&gt;User</title>
<path fill="none" stroke="#b34c61" d="M311.146,-819.351C324.704,-806.885 337.775,-792.884 348,-778 380.639,-730.49 371.174,-709.747 392,-656 393.192,-652.924 394.407,-649.813 395.64,-646.677"/>
<polygon fill="#b34c61" stroke="#b34c61" points="311.035,-819.45 300.58,-822.759 307.307,-822.782 303.579,-826.114 303.579,-826.114 303.579,-826.114 307.307,-822.782 306.577,-829.469 311.035,-819.45 311.035,-819.45"/>
<polygon fill="#b34c61" stroke="#b34c61" points="395.707,-646.507 403.572,-638.865 397.548,-641.858 399.388,-637.209 399.388,-637.209 399.388,-637.209 397.548,-641.858 395.204,-635.553 395.707,-646.507 395.707,-646.507"/>
</g>
<!-- Testing&#45;&gt;UserTesting -->
<g id="edge54" class="edge"><title>Testing&#45;&gt;UserTesting</title>
<path fill="none" stroke="#50ef8e" d="M201.714,-809.068C196.773,-798.821 192.019,-788.231 188,-778 164.297,-717.653 156.204,-702.179 147,-638 132.992,-540.324 137.278,-425.233 141.94,-357.122"/>
<ellipse fill="none" stroke="#50ef8e" cx="203.576" cy="-812.866" rx="4.00002" ry="4.00002"/>
<polygon fill="#50ef8e" stroke="#50ef8e" points="141.949,-356.987 147.147,-347.331 142.304,-352 142.658,-347.012 142.658,-347.012 142.658,-347.012 142.304,-352 138.17,-346.693 141.949,-356.987 141.949,-356.987"/>
</g>
<!-- User&#45;&gt;Teacher -->
<g id="edge62" class="edge"><title>User&#45;&gt;Teacher</title>
<path fill="none" stroke="#c89bb1" d="M458.567,-394.313C460.135,-384.689 461.935,-375.159 464,-366 464.667,-363.042 465.422,-360.035 466.244,-357.016"/>
<ellipse fill="none" stroke="#c89bb1" cx="457.92" cy="-398.462" rx="4.00001" ry="4.00001"/>
<polygon fill="#c89bb1" stroke="#c89bb1" points="466.258,-356.968 473.383,-348.632 467.66,-352.168 469.063,-347.369 469.063,-347.369 469.063,-347.369 467.66,-352.168 464.744,-346.107 466.258,-356.968 466.258,-356.968"/>
</g>
<!-- User&#45;&gt;User -->
<g id="edge60" class="edge"><title>User&#45;&gt;User</title>
<path fill="none" stroke="#2d10d6" d="M559.244,-536.406C564.755,-532.317 568,-526.848 568,-520 568,-513.152 564.755,-507.683 559.244,-503.594"/>
<polygon fill="#2d10d6" stroke="#2d10d6" points="559.236,-536.411 548.295,-537.16 554.827,-538.77 550.418,-541.128 550.418,-541.128 550.418,-541.128 554.827,-538.77 552.541,-545.096 559.236,-536.411 559.236,-536.411"/>
<polygon fill="#2d10d6" stroke="#2d10d6" points="559.236,-503.589 552.541,-494.904 554.827,-501.23 550.418,-498.872 550.418,-498.872 550.418,-498.872 554.827,-501.23 548.295,-502.84 559.236,-503.589 559.236,-503.589"/>
<text text-anchor="middle" x="616.6" y="-514.4" font-family="Times,serif" font-size="14.00">assigned_courses</text>
</g>
<!-- User&#45;&gt;UserCourse -->
<g id="edge58" class="edge"><title>User&#45;&gt;UserCourse</title>
<path fill="none" stroke="#af8a73" d="M469.299,-395.323C474.857,-384.477 481.804,-374.436 490.476,-366 514.28,-342.842 532.576,-361.317 563,-348 566.038,-346.67 569.09,-345.222 572.131,-343.684"/>
<ellipse fill="none" stroke="#af8a73" cx="467.566" cy="-398.949" rx="4.00002" ry="4.00002"/>
<polygon fill="#af8a73" stroke="#af8a73" points="572.388,-343.546 583.328,-342.796 576.796,-341.187 581.205,-338.828 581.205,-338.828 581.205,-338.828 576.796,-341.187 579.082,-334.86 572.388,-343.546 572.388,-343.546"/>
<text text-anchor="middle" x="553.762" y="-369.4" font-family="Times,serif" font-size="14.00">assigned_user_courses</text>
</g>
<!-- User&#45;&gt;UserCourse -->
<g id="edge64" class="edge"><title>User&#45;&gt;UserCourse</title>
<path fill="none" stroke="#9d8ead" d="M557.145,-449.977C580.087,-431.045 602.116,-408.804 618,-384 624.734,-373.484 629.309,-360.98 632.417,-348.81"/>
<ellipse fill="none" stroke="#9d8ead" cx="553.764" cy="-452.712" rx="4.00002" ry="4.00002"/>
<polygon fill="#9d8ead" stroke="#9d8ead" points="632.494,-348.47 639.087,-339.708 633.596,-343.593 634.698,-338.716 634.698,-338.716 634.698,-338.716 633.596,-343.593 630.309,-337.724 632.494,-348.47 632.494,-348.47"/>
</g>
<!-- User&#45;&gt;UserLesson -->
<g id="edge66" class="edge"><title>User&#45;&gt;UserLesson</title>
<path fill="none" stroke="#e569d4" d="M557.505,-448.971C605.593,-418.124 662.677,-381.378 714,-348 714.285,-347.814 714.572,-347.628 714.858,-347.442"/>
<ellipse fill="none" stroke="#e569d4" cx="553.845" cy="-451.319" rx="4.00002" ry="4.00002"/>
<polygon fill="#e569d4" stroke="#e569d4" points="714.921,-347.401 725.755,-345.71 719.109,-344.67 723.298,-341.94 723.298,-341.94 723.298,-341.94 719.109,-344.67 720.841,-338.17 714.921,-347.401 714.921,-347.401"/>
</g>
<!-- User&#45;&gt;UserQuestion -->
<g id="edge68" class="edge"><title>User&#45;&gt;UserQuestion</title>
<path fill="none" stroke="#63991f" d="M374.429,-395.873C367.696,-385.651 360.834,-375.575 354,-366 349.439,-359.611 344.456,-353.05 339.404,-346.643"/>
<ellipse fill="none" stroke="#63991f" cx="376.644" cy="-399.26" rx="4.00002" ry="4.00002"/>
<polygon fill="#63991f" stroke="#63991f" points="339.242,-346.442 336.506,-335.823 336.118,-342.539 332.993,-338.635 332.993,-338.635 332.993,-338.635 336.118,-342.539 329.48,-341.447 339.242,-346.442 339.242,-346.442"/>
</g>
<!-- User&#45;&gt;UserTesting -->
<g id="edge70" class="edge"><title>User&#45;&gt;UserTesting</title>
<path fill="none" stroke="#22610a" d="M338.671,-432.519C325.066,-422.115 311.275,-411.735 298,-402 273.661,-384.15 246.636,-365.256 222.254,-348.539"/>
<ellipse fill="none" stroke="#22610a" cx="342.157" cy="-435.192" rx="4.00002" ry="4.00002"/>
<polygon fill="#22610a" stroke="#22610a" points="222.003,-348.367 216.289,-339.008 217.876,-345.545 213.749,-342.722 213.749,-342.722 213.749,-342.722 217.876,-345.545 211.209,-346.436 222.003,-348.367 222.003,-348.367"/>
</g>
<!-- UserAnswer -->
<g id="node17" class="node"><title>UserAnswer</title>
<polyline fill="none" stroke="black" points="725.495,-1336.8 834.505,-1336.8 "/>
<path fill="none" stroke="black" d="M834.505,-1336.8C840.505,-1336.8 846.505,-1342.8 846.505,-1348.8"/>
<polyline fill="none" stroke="black" points="846.505,-1348.8 846.505,-1391.2 "/>
<path fill="none" stroke="black" d="M846.505,-1391.2C846.505,-1397.2 840.505,-1403.2 834.505,-1403.2"/>
<polyline fill="none" stroke="black" points="834.505,-1403.2 725.495,-1403.2 "/>
<path fill="none" stroke="black" d="M725.495,-1403.2C719.495,-1403.2 713.495,-1397.2 713.495,-1391.2"/>
<polyline fill="none" stroke="black" points="713.495,-1391.2 713.495,-1348.8 "/>
<path fill="none" stroke="black" d="M713.495,-1348.8C713.495,-1342.8 719.495,-1336.8 725.495,-1336.8"/>
<text text-anchor="middle" x="780" y="-1385.2" font-family="Times,serif" font-size="14.00">UserAnswer</text>
<polyline fill="none" stroke="black" points="713.495,-1378.4 846.505,-1378.4 "/>
<text text-anchor="start" x="721.495" y="-1360.4" font-family="Times,serif" font-size="14.00">created_at :datetime</text>
<text text-anchor="start" x="721.495" y="-1343.6" font-family="Times,serif" font-size="14.00">updated_at :datetime</text>
</g>
</g>
</svg>
