<?xml version="1.0" encoding="UTF-8" standalone="no"?>
<!DOCTYPE svg PUBLIC "-//W3C//DTD SVG 1.1//EN"
 "http://www.w3.org/Graphics/SVG/1.1/DTD/svg11.dtd">
<!-- Generated by graphviz version 2.26.3 (20100126.1600)
 -->
<!-- Title: models_diagram Pages: 1 -->
<svg width="1163pt" height="650pt"
 viewBox="0.00 0.00 1163.00 650.00" xmlns="http://www.w3.org/2000/svg" xmlns:xlink="http://www.w3.org/1999/xlink">
<g id="graph1" class="graph" transform="scale(1 1) rotate(0) translate(4 646)">
<title>models_diagram</title>
<polygon fill="white" stroke="white" points="-4,5 -4,-646 1160,-646 1160,5 -4,5"/>
<!-- _diagram_info -->
<g id="node1" class="node"><title>_diagram_info</title>
<text text-anchor="start" x="305" y="-625.8" font-family="Times Roman,serif" font-size="13.00">Models diagram</text>
<text text-anchor="start" x="305" y="-608.8" font-family="Times Roman,serif" font-size="13.00">Date: May 13 2012 &#45; 16:57</text>
<text text-anchor="start" x="305" y="-591.8" font-family="Times Roman,serif" font-size="13.00">Migration version: 20120513135320</text>
<text text-anchor="start" x="305" y="-574.8" font-family="Times Roman,serif" font-size="13.00">Generated by RailRoady 1.0.7</text>
<text text-anchor="start" x="305" y="-557.8" font-family="Times Roman,serif" font-size="13.00">http://railroady.prestonlee.com</text>
</g>
<!-- Course -->
<g id="node2" class="node"><title>Course</title>
<ellipse fill="none" stroke="black" cx="621" cy="-491" rx="45.9619" ry="18.3848"/>
<text text-anchor="middle" x="621" y="-487.4" font-family="Times Roman,serif" font-size="14.00">Course</text>
</g>
<!-- Video -->
<g id="node4" class="node"><title>Video</title>
<ellipse fill="none" stroke="black" cx="671" cy="-339" rx="38.8909" ry="18.3848"/>
<text text-anchor="middle" x="671" y="-335.4" font-family="Times Roman,serif" font-size="14.00">Video</text>
</g>
<!-- Course&#45;&gt;Video -->
<g id="edge18" class="edge"><title>Course&#45;&gt;Video</title>
<path fill="none" stroke="#b9d2c0" d="M630.329,-462.639C639.319,-435.311 652.838,-394.213 661.788,-367.006"/>
<polygon fill="#b9d2c0" stroke="#b9d2c0" points="630.256,-462.863 622.856,-470.956 628.693,-467.612 627.131,-472.362 627.131,-472.362 627.131,-472.362 628.693,-467.612 631.406,-473.768 630.256,-462.863 630.256,-462.863"/>
<polygon fill="#b9d2c0" stroke="#b9d2c0" points="661.85,-366.815 669.25,-358.722 663.413,-362.065 664.975,-357.316 664.975,-357.316 664.975,-357.316 663.413,-362.065 660.7,-355.91 661.85,-366.815 661.85,-366.815"/>
</g>
<!-- StudentGroupCourse -->
<g id="node7" class="node"><title>StudentGroupCourse</title>
<ellipse fill="none" stroke="black" cx="848" cy="-19" rx="114.759" ry="18.3848"/>
<text text-anchor="middle" x="848" y="-15.4" font-family="Times Roman,serif" font-size="14.00">StudentGroupCourse</text>
</g>
<!-- Course&#45;&gt;StudentGroupCourse -->
<g id="edge8" class="edge"><title>Course&#45;&gt;StudentGroupCourse</title>
<path fill="none" stroke="#15164f" d="M662.137,-475.764C666.774,-474.354 671.462,-473.059 676,-472 725.181,-460.518 896,-465.503 896,-415 896,-415 896,-415 896,-95 896,-76.3451 885.534,-58.5408 874.376,-44.8603"/>
<ellipse fill="none" stroke="#15164f" cx="658.229" cy="-477.011" rx="4.00001" ry="4.00001"/>
<polygon fill="#15164f" stroke="#15164f" points="874.367,-44.8492 871.195,-34.352 871.084,-41.0779 867.801,-37.3067 867.801,-37.3067 867.801,-37.3067 871.084,-41.0779 864.406,-40.2614 874.367,-44.8492 874.367,-44.8492"/>
</g>
<!-- Lesson -->
<g id="node8" class="node"><title>Lesson</title>
<ellipse fill="none" stroke="black" cx="478" cy="-415" rx="44.7575" ry="18.3848"/>
<text text-anchor="middle" x="478" y="-411.4" font-family="Times Roman,serif" font-size="14.00">Lesson</text>
</g>
<!-- Course&#45;&gt;Lesson -->
<g id="edge6" class="edge"><title>Course&#45;&gt;Lesson</title>
<path fill="none" stroke="#079ad9" d="M585.713,-472.246C564.16,-460.791 536.64,-446.165 514.813,-434.565"/>
<ellipse fill="none" stroke="#079ad9" cx="589.557" cy="-474.289" rx="4.00002" ry="4.00002"/>
<polygon fill="#079ad9" stroke="#079ad9" points="514.671,-434.49 507.953,-425.823 510.256,-432.143 505.841,-429.797 505.841,-429.797 505.841,-429.797 510.256,-432.143 503.729,-433.77 514.671,-434.49 514.671,-434.49"/>
</g>
<!-- UserTesting -->
<g id="node9" class="node"><title>UserTesting</title>
<ellipse fill="none" stroke="black" cx="134" cy="-171" rx="68.0887" ry="18.3848"/>
<text text-anchor="middle" x="134" y="-167.4" font-family="Times Roman,serif" font-size="14.00">UserTesting</text>
</g>
<!-- Course&#45;&gt;UserTesting -->
<g id="edge12" class="edge"><title>Course&#45;&gt;UserTesting</title>
<path fill="none" stroke="#c26357" d="M566.529,-490.009C415.071,-486.535 0,-471.832 0,-415 0,-415 0,-415 0,-263 0,-224.273 38.5091,-200.629 74.2394,-187.025"/>
<ellipse fill="none" stroke="#c26357" cx="570.832" cy="-490.105" rx="4" ry="4"/>
<polygon fill="#c26357" stroke="#c26357" points="74.312,-186.999 85.2449,-187.85 79.0171,-185.307 83.7221,-183.615 83.7221,-183.615 83.7221,-183.615 79.0171,-185.307 82.1994,-179.38 74.312,-186.999 74.312,-186.999"/>
</g>
<!-- Testing -->
<g id="node10" class="node"><title>Testing</title>
<ellipse fill="none" stroke="black" cx="285" cy="-339" rx="45.9619" ry="18.3848"/>
<text text-anchor="middle" x="285" y="-335.4" font-family="Times Roman,serif" font-size="14.00">Testing</text>
</g>
<!-- Course&#45;&gt;Testing -->
<g id="edge14" class="edge"><title>Course&#45;&gt;Testing</title>
<path fill="none" stroke="#aa3b38" d="M564.816,-488.428C498.493,-484.473 393.028,-475.024 360,-454 327.944,-433.595 306.727,-394.006 295.282,-367.04"/>
<polygon fill="#aa3b38" stroke="#aa3b38" points="565.123,-488.445 574.85,-493.509 570.115,-488.731 575.107,-489.016 575.107,-489.016 575.107,-489.016 570.115,-488.731 575.364,-484.524 565.123,-488.445 565.123,-488.445"/>
<polygon fill="#aa3b38" stroke="#aa3b38" points="295.266,-367.001 295.675,-356.043 293.386,-362.368 291.505,-357.735 291.505,-357.735 291.505,-357.735 293.386,-362.368 287.335,-359.427 295.266,-367.001 295.266,-367.001"/>
</g>
<!-- User -->
<g id="node11" class="node"><title>User</title>
<ellipse fill="none" stroke="black" cx="393" cy="-263" rx="33.9411" ry="18.3848"/>
<text text-anchor="middle" x="393" y="-259.4" font-family="Times Roman,serif" font-size="14.00">User</text>
</g>
<!-- Course&#45;&gt;User -->
<g id="edge4" class="edge"><title>Course&#45;&gt;User</title>
<path fill="none" stroke="#b70632" d="M568.37,-482.197C516.823,-472.488 443.29,-455.371 424,-434 388.673,-394.861 387.131,-329.475 389.71,-291.914"/>
<polygon fill="#b70632" stroke="#b70632" points="568.529,-482.226 577.548,-488.465 573.447,-483.133 578.364,-484.039 578.364,-484.039 578.364,-484.039 573.447,-483.133 579.18,-479.614 568.529,-482.226 568.529,-482.226"/>
<polygon fill="#b70632" stroke="#b70632" points="389.735,-291.621 395.051,-282.03 390.15,-286.638 390.566,-281.656 390.566,-281.656 390.566,-281.656 390.15,-286.638 386.082,-281.282 389.735,-291.621 389.735,-291.621"/>
</g>
<!-- UserCourse -->
<g id="node17" class="node"><title>UserCourse</title>
<ellipse fill="none" stroke="black" cx="456" cy="-171" rx="67.8823" ry="18.3848"/>
<text text-anchor="middle" x="456" y="-167.4" font-family="Times Roman,serif" font-size="14.00">UserCourse</text>
</g>
<!-- Course&#45;&gt;UserCourse -->
<g id="edge2" class="edge"><title>Course&#45;&gt;UserCourse</title>
<path fill="none" stroke="#c87232" d="M649.053,-469.325C686.937,-437.262 746.703,-375.04 719,-320 681.434,-245.364 642.167,-246.483 568,-208 551.513,-199.445 532.649,-192.308 515.162,-186.657"/>
<ellipse fill="none" stroke="#c87232" cx="645.798" cy="-472.026" rx="4.00002" ry="4.00002"/>
<polygon fill="#c87232" stroke="#c87232" points="515.157,-186.656 506.956,-179.377 510.385,-185.164 505.613,-183.672 505.613,-183.672 505.613,-183.672 510.385,-185.164 504.27,-187.967 515.157,-186.656 515.157,-186.656"/>
</g>
<!-- UserLesson -->
<g id="node19" class="node"><title>UserLesson</title>
<ellipse fill="none" stroke="black" cx="763" cy="-171" rx="67.1751" ry="18.3848"/>
<text text-anchor="middle" x="763" y="-167.4" font-family="Times Roman,serif" font-size="14.00">UserLesson</text>
</g>
<!-- Course&#45;&gt;UserLesson -->
<g id="edge16" class="edge"><title>Course&#45;&gt;UserLesson</title>
<path fill="none" stroke="#b27af8" d="M662.69,-475.706C667.15,-474.338 671.646,-473.069 676,-472 742.846,-455.588 820,-483.832 820,-415 820,-415 820,-415 820,-263 820,-237.582 804.083,-213.336 789.071,-196.123"/>
<ellipse fill="none" stroke="#b27af8" cx="658.551" cy="-477.032" rx="4.00001" ry="4.00001"/>
<polygon fill="#b27af8" stroke="#b27af8" points="789.053,-196.103 785.616,-185.69 785.675,-192.416 782.298,-188.729 782.298,-188.729 782.298,-188.729 785.675,-192.416 778.98,-191.769 789.053,-196.103 789.053,-196.103"/>
</g>
<!-- StudentGroup -->
<g id="node21" class="node"><title>StudentGroup</title>
<ellipse fill="none" stroke="black" cx="728" cy="-95" rx="80.8184" ry="18.3848"/>
<text text-anchor="middle" x="728" y="-91.4" font-family="Times Roman,serif" font-size="14.00">StudentGroup</text>
</g>
<!-- Course&#45;&gt;StudentGroup -->
<g id="edge10" class="edge"><title>Course&#45;&gt;StudentGroup</title>
<path fill="none" stroke="#3ec820" d="M657.565,-471.068C724.064,-433.569 858,-351.745 858,-301 858,-301 858,-301 858,-171 858,-139.861 829.858,-121.246 799.761,-110.241"/>
<polygon fill="#3ec820" stroke="#3ec820" points="657.377,-471.173 646.453,-472.13 653.014,-473.615 648.651,-476.057 648.651,-476.057 648.651,-476.057 653.014,-473.615 650.848,-479.984 657.377,-471.173 657.377,-471.173"/>
<polygon fill="#3ec820" stroke="#3ec820" points="799.429,-110.129 791.394,-102.666 794.691,-108.529 789.954,-106.93 789.954,-106.93 789.954,-106.93 794.691,-108.529 788.514,-111.193 799.429,-110.129 799.429,-110.129"/>
</g>
<!-- Document -->
<g id="node22" class="node"><title>Document</title>
<ellipse fill="none" stroke="black" cx="552" cy="-339" rx="62.2254" ry="18.3848"/>
<text text-anchor="middle" x="552" y="-335.4" font-family="Times Roman,serif" font-size="14.00">Document</text>
</g>
<!-- Course&#45;&gt;Document -->
<g id="edge20" class="edge"><title>Course&#45;&gt;Document</title>
<path fill="none" stroke="#242cba" d="M608.457,-463.368C596.025,-435.983 577.086,-394.262 564.626,-366.814"/>
<polygon fill="#242cba" stroke="#242cba" points="608.543,-463.56 608.579,-474.525 610.61,-468.112 612.677,-472.665 612.677,-472.665 612.677,-472.665 610.61,-468.112 616.775,-470.805 608.543,-463.56 608.543,-463.56"/>
<polygon fill="#242cba" stroke="#242cba" points="564.486,-366.506 564.45,-355.54 562.419,-361.953 560.353,-357.4 560.353,-357.4 560.353,-357.4 562.419,-361.953 556.255,-359.26 564.486,-366.506 564.486,-366.506"/>
</g>
<!-- Ability -->
<g id="node3" class="node"><title>Ability</title>
<polygon fill="none" stroke="black" points="756,-613 696,-613 696,-577 756,-577 756,-613"/>
<text text-anchor="middle" x="726" y="-591.4" font-family="Times Roman,serif" font-size="14.00">Ability</text>
</g>
<!-- UserQuestion -->
<g id="node5" class="node"><title>UserQuestion</title>
<ellipse fill="none" stroke="black" cx="318" cy="-95" rx="77.7817" ry="18.3848"/>
<text text-anchor="middle" x="318" y="-91.4" font-family="Times Roman,serif" font-size="14.00">UserQuestion</text>
</g>
<!-- Teacher -->
<g id="node6" class="node"><title>Teacher</title>
<ellipse fill="none" stroke="black" cx="591" cy="-171" rx="48.9975" ry="18.3848"/>
<text text-anchor="middle" x="591" y="-167.4" font-family="Times Roman,serif" font-size="14.00">Teacher</text>
</g>
<!-- Teacher&#45;&gt;StudentGroup -->
<g id="edge22" class="edge"><title>Teacher&#45;&gt;StudentGroup</title>
<path fill="none" stroke="#be634a" d="M622.801,-150.537C632.686,-144.387 643.695,-137.75 654,-132 663.41,-126.749 673.66,-121.398 683.45,-116.457"/>
<ellipse fill="none" stroke="#be634a" cx="619.216" cy="-152.784" rx="4.00002" ry="4.00002"/>
<polygon fill="#be634a" stroke="#be634a" points="683.706,-116.329 694.663,-115.887 688.179,-114.095 692.652,-111.861 692.652,-111.861 692.652,-111.861 688.179,-114.095 690.642,-107.835 683.706,-116.329 683.706,-116.329"/>
</g>
<!-- Lesson&#45;&gt;Video -->
<g id="edge30" class="edge"><title>Lesson&#45;&gt;Video</title>
<path fill="none" stroke="#36639f" d="M518.357,-399.165C547.453,-387.741 587.66,-371.94 623,-358 625.827,-356.885 628.747,-355.732 631.686,-354.571"/>
<ellipse fill="none" stroke="#36639f" cx="514.557" cy="-400.657" rx="4.00001" ry="4.00001"/>
<polygon fill="#36639f" stroke="#36639f" points="631.747,-354.546 642.701,-355.054 636.397,-352.708 641.046,-350.869 641.046,-350.869 641.046,-350.869 636.397,-352.708 639.392,-346.685 631.747,-354.546 631.747,-354.546"/>
</g>
<!-- Lesson&#45;&gt;Testing -->
<g id="edge28" class="edge"><title>Lesson&#45;&gt;Testing</title>
<path fill="none" stroke="#c2eea3" d="M437.48,-399.044C405.145,-386.311 359.993,-368.531 327.22,-355.625"/>
<ellipse fill="none" stroke="#c2eea3" cx="441.538" cy="-400.642" rx="4.00001" ry="4.00001"/>
<polygon fill="#c2eea3" stroke="#c2eea3" points="327.205,-355.62 319.549,-347.769 322.553,-353.788 317.9,-351.956 317.9,-351.956 317.9,-351.956 322.553,-353.788 316.252,-356.143 327.205,-355.62 327.205,-355.62"/>
</g>
<!-- Lesson&#45;&gt;User -->
<g id="edge26" class="edge"><title>Lesson&#45;&gt;User</title>
<path fill="none" stroke="#b2e8b0" d="M456.132,-389.602C453.251,-385.816 450.452,-381.88 448,-378 430.1,-349.682 414.138,-314.644 404.081,-290.735"/>
<polygon fill="#b2e8b0" stroke="#b2e8b0" points="456.242,-389.742 458.94,-400.371 459.353,-393.656 462.463,-397.571 462.463,-397.571 462.463,-397.571 459.353,-393.656 465.986,-394.772 456.242,-389.742 456.242,-389.742"/>
<polygon fill="#b2e8b0" stroke="#b2e8b0" points="403.968,-290.461 404.302,-279.5 402.056,-285.841 400.144,-281.221 400.144,-281.221 400.144,-281.221 402.056,-285.841 395.986,-282.942 403.968,-290.461 403.968,-290.461"/>
</g>
<!-- Lesson&#45;&gt;UserLesson -->
<g id="edge24" class="edge"><title>Lesson&#45;&gt;UserLesson</title>
<path fill="none" stroke="#de58dd" d="M471.585,-388.384C468.242,-367.885 467.3,-339.797 481,-320 506.174,-283.621 532.215,-299.139 573,-282 631.374,-257.469 650.937,-260.549 704,-226 716.843,-217.638 729.487,-206.374 739.756,-196.218"/>
<ellipse fill="none" stroke="#de58dd" cx="472.341" cy="-392.45" rx="4.00001" ry="4.00001"/>
<polygon fill="#de58dd" stroke="#de58dd" points="739.77,-196.204 749.99,-192.231 743.276,-192.64 746.782,-189.075 746.782,-189.075 746.782,-189.075 743.276,-192.64 743.574,-185.92 739.77,-196.204 739.77,-196.204"/>
</g>
<!-- Lesson&#45;&gt;Document -->
<g id="edge32" class="edge"><title>Lesson&#45;&gt;Document</title>
<path fill="none" stroke="#b9c033" d="M500.611,-391.778C509.122,-383.037 518.836,-373.06 527.51,-364.152"/>
<ellipse fill="none" stroke="#b9c033" cx="497.582" cy="-394.889" rx="4.00002" ry="4.00002"/>
<polygon fill="#b9c033" stroke="#b9c033" points="527.526,-364.135 537.727,-360.11 531.014,-360.553 534.503,-356.97 534.503,-356.97 534.503,-356.97 531.014,-360.553 531.278,-353.831 527.526,-364.135 527.526,-364.135"/>
</g>
<!-- Testing&#45;&gt;UserTesting -->
<g id="edge38" class="edge"><title>Testing&#45;&gt;UserTesting</title>
<path fill="none" stroke="#faa419" d="M263.739,-315.345C235.648,-284.091 186.337,-229.23 157.273,-196.893"/>
<ellipse fill="none" stroke="#faa419" cx="266.452" cy="-318.364" rx="4.00002" ry="4.00002"/>
<polygon fill="#faa419" stroke="#faa419" points="157.03,-196.623 153.692,-186.177 153.688,-192.904 150.345,-189.185 150.345,-189.185 150.345,-189.185 153.688,-192.904 146.998,-192.194 157.03,-196.623 157.03,-196.623"/>
</g>
<!-- Testing&#45;&gt;User -->
<g id="edge40" class="edge"><title>Testing&#45;&gt;User</title>
<path fill="none" stroke="#ede13d" d="M316.312,-316.965C331.261,-306.446 349.046,-293.931 363.723,-283.603"/>
<polygon fill="#ede13d" stroke="#ede13d" points="316.082,-317.127 305.314,-319.202 311.993,-320.005 307.904,-322.882 307.904,-322.882 307.904,-322.882 311.993,-320.005 310.494,-326.562 316.082,-317.127 316.082,-317.127"/>
<polygon fill="#ede13d" stroke="#ede13d" points="363.782,-283.561 374.55,-281.486 367.871,-280.683 371.96,-277.806 371.96,-277.806 371.96,-277.806 367.871,-280.683 369.371,-274.126 363.782,-283.561 363.782,-283.561"/>
</g>
<!-- Question -->
<g id="node18" class="node"><title>Question</title>
<ellipse fill="none" stroke="black" cx="276" cy="-171" rx="55.8614" ry="18.3848"/>
<text text-anchor="middle" x="276" y="-167.4" font-family="Times Roman,serif" font-size="14.00">Question</text>
</g>
<!-- Testing&#45;&gt;Question -->
<g id="edge34" class="edge"><title>Testing&#45;&gt;Question</title>
<path fill="none" stroke="#469ce2" d="M283.566,-312.225C281.924,-281.587 279.246,-231.587 277.555,-200.034"/>
<ellipse fill="none" stroke="#469ce2" cx="283.788" cy="-316.385" rx="4" ry="4"/>
<polygon fill="#469ce2" stroke="#469ce2" points="277.537,-199.69 281.496,-189.463 277.27,-194.697 277.002,-189.704 277.002,-189.704 277.002,-189.704 277.27,-194.697 272.508,-189.945 277.537,-199.69 277.537,-199.69"/>
</g>
<!-- Answer -->
<g id="node20" class="node"><title>Answer</title>
<ellipse fill="none" stroke="black" cx="105" cy="-95" rx="48.7904" ry="18.3848"/>
<text text-anchor="middle" x="105" y="-91.4" font-family="Times Roman,serif" font-size="14.00">Answer</text>
</g>
<!-- Testing&#45;&gt;Answer -->
<g id="edge36" class="edge"><title>Testing&#45;&gt;Answer</title>
<path fill="none" stroke="#cad176" d="M238.769,-324.059C184.021,-303.581 95.4238,-261.012 57,-190 48.9627,-175.146 51.2097,-167.865 57,-152 61.3662,-140.037 69.4717,-128.846 77.7953,-119.602"/>
<polygon fill="#cad176" stroke="#cad176" points="238.85,-324.088 246.706,-331.738 243.548,-325.799 248.246,-327.51 248.246,-327.51 248.246,-327.51 243.548,-325.799 249.786,-323.281 238.85,-324.088 238.85,-324.088"/>
<polygon fill="#cad176" stroke="#cad176" points="77.8481,-119.547 88.0127,-115.432 81.3046,-115.934 84.7611,-112.322 84.7611,-112.322 84.7611,-112.322 81.3046,-115.934 81.5095,-109.211 77.8481,-119.547 77.8481,-119.547"/>
</g>
<!-- User&#45;&gt;UserQuestion -->
<g id="edge52" class="edge"><title>User&#45;&gt;UserQuestion</title>
<path fill="none" stroke="#a05259" d="M381.541,-237.333C367.738,-206.413 344.636,-154.665 330.418,-122.816"/>
<ellipse fill="none" stroke="#a05259" cx="383.343" cy="-241.369" rx="4.00002" ry="4.00002"/>
<polygon fill="#a05259" stroke="#a05259" points="330.387,-122.747 330.42,-111.781 328.349,-118.181 326.311,-113.616 326.311,-113.616 326.311,-113.616 328.349,-118.181 322.201,-115.45 330.387,-122.747 330.387,-122.747"/>
</g>
<!-- User&#45;&gt;Teacher -->
<g id="edge46" class="edge"><title>User&#45;&gt;Teacher</title>
<path fill="none" stroke="#0deb38" d="M434.806,-258.653C479.945,-253.195 548.072,-242.499 568,-226 576.165,-219.24 581.478,-209.085 584.915,-199.334"/>
<ellipse fill="none" stroke="#0deb38" cx="430.635" cy="-259.144" rx="4.00001" ry="4.00001"/>
<polygon fill="#0deb38" stroke="#0deb38" points="584.997,-199.06 592.169,-190.766 586.427,-194.269 587.857,-189.478 587.857,-189.478 587.857,-189.478 586.427,-194.269 583.545,-188.191 584.997,-199.06 584.997,-199.06"/>
</g>
<!-- User&#45;&gt;UserTesting -->
<g id="edge56" class="edge"><title>User&#45;&gt;UserTesting</title>
<path fill="none" stroke="#cbaa98" d="M356.686,-250.101C311.961,-234.214 235.711,-207.129 185.092,-189.149"/>
<ellipse fill="none" stroke="#cbaa98" cx="360.524" cy="-251.464" rx="4.00001" ry="4.00001"/>
<polygon fill="#cbaa98" stroke="#cbaa98" points="185.063,-189.138 177.146,-181.551 180.351,-187.465 175.64,-185.791 175.64,-185.791 175.64,-185.791 180.351,-187.465 174.134,-190.031 185.063,-189.138 185.063,-189.138"/>
</g>
<!-- User&#45;&gt;User -->
<g id="edge44" class="edge"><title>User&#45;&gt;User</title>
<path fill="none" stroke="#fbee0a" d="M434.68,-269.453C440.839,-268.442 445,-266.291 445,-263 445,-259.709 440.839,-257.558 434.68,-256.547"/>
<polygon fill="#fbee0a" stroke="#fbee0a" points="434.457,-269.467 424.185,-265.628 429.468,-269.793 424.478,-270.118 424.478,-270.118 424.478,-270.118 429.468,-269.793 424.771,-274.609 434.457,-269.467 434.457,-269.467"/>
<polygon fill="#fbee0a" stroke="#fbee0a" points="434.457,-256.533 424.771,-251.391 429.468,-256.207 424.478,-255.882 424.478,-255.882 424.478,-255.882 429.468,-256.207 424.185,-260.372 434.457,-256.533 434.457,-256.533"/>
<text text-anchor="middle" x="504.5" y="-259.4" font-family="Times Roman,serif" font-size="14.00">assigned_courses</text>
</g>
<!-- User&#45;&gt;UserCourse -->
<g id="edge42" class="edge"><title>User&#45;&gt;UserCourse</title>
<path fill="none" stroke="#80dd20" d="M388.347,-236.411C387.96,-226.889 389.109,-216.435 394,-208 397.549,-201.88 402.546,-196.66 408.181,-192.241"/>
<ellipse fill="none" stroke="#80dd20" cx="388.69" cy="-240.479" rx="4" ry="4"/>
<polygon fill="#80dd20" stroke="#80dd20" points="408.553,-191.986 419.344,-190.038 412.675,-189.157 416.798,-186.328 416.798,-186.328 416.798,-186.328 412.675,-189.157 414.252,-182.617 408.553,-191.986 408.553,-191.986"/>
<text text-anchor="middle" x="472.5" y="-213.4" font-family="Times Roman,serif" font-size="14.00">assigned_user_courses</text>
</g>
<!-- User&#45;&gt;UserCourse -->
<g id="edge48" class="edge"><title>User&#45;&gt;UserCourse</title>
<path fill="none" stroke="#7a1e58" d="M434.661,-259.033C476.488,-254.088 536.724,-244.005 551,-226 565.342,-207.912 544.845,-194.628 519.266,-185.651"/>
<ellipse fill="none" stroke="#7a1e58" cx="430.535" cy="-259.503" rx="4.00001" ry="4.00001"/>
<polygon fill="#7a1e58" stroke="#7a1e58" points="519.179,-185.623 511.056,-178.257 514.423,-184.08 509.667,-182.538 509.667,-182.538 509.667,-182.538 514.423,-184.08 508.279,-186.818 519.179,-185.623 519.179,-185.623"/>
</g>
<!-- User&#45;&gt;Question -->
<g id="edge54" class="edge"><title>User&#45;&gt;Question</title>
<path fill="none" stroke="#6d68bc" d="M365.366,-241.271C347.538,-227.252 324.35,-209.019 306.062,-194.639"/>
<polygon fill="#6d68bc" stroke="#6d68bc" points="365.556,-241.42 370.635,-251.139 369.486,-244.511 373.417,-247.601 373.417,-247.601 373.417,-247.601 369.486,-244.511 376.198,-244.064 365.556,-241.42 365.556,-241.42"/>
<polygon fill="#6d68bc" stroke="#6d68bc" points="305.902,-194.513 300.823,-184.794 301.972,-191.422 298.041,-188.332 298.041,-188.332 298.041,-188.332 301.972,-191.422 295.26,-191.869 305.902,-194.513 305.902,-194.513"/>
</g>
<!-- User&#45;&gt;UserLesson -->
<g id="edge50" class="edge"><title>User&#45;&gt;UserLesson</title>
<path fill="none" stroke="#9013a1" d="M434.932,-259.894C503.204,-254.45 635.173,-242.206 679,-226 680.45,-225.464 706.092,-208.63 728.667,-193.726"/>
<ellipse fill="none" stroke="#9013a1" cx="430.92" cy="-260.21" rx="4" ry="4"/>
<polygon fill="#9013a1" stroke="#9013a1" points="728.768,-193.66 739.592,-191.902 732.94,-190.903 737.112,-188.147 737.112,-188.147 737.112,-188.147 732.94,-190.903 734.631,-184.393 728.768,-193.66 728.768,-193.66"/>
</g>
<!-- Category -->
<g id="node12" class="node"><title>Category</title>
<ellipse fill="none" stroke="black" cx="621" cy="-595" rx="56.0679" ry="18.3848"/>
<text text-anchor="middle" x="621" y="-591.4" font-family="Times Roman,serif" font-size="14.00">Category</text>
</g>
<!-- Category&#45;&gt;Course -->
<g id="edge58" class="edge"><title>Category&#45;&gt;Course</title>
<path fill="none" stroke="#52d72f" d="M621,-567.926C621,-553.224 621,-535.041 621,-520.044"/>
<ellipse fill="none" stroke="#52d72f" cx="621" cy="-572.407" rx="4" ry="4"/>
<polygon fill="#52d72f" stroke="#52d72f" points="621,-519.783 625.5,-509.783 621,-514.783 621,-509.783 621,-509.783 621,-509.783 621,-514.783 616.5,-509.783 621,-519.783 621,-519.783"/>
</g>
<!-- UserAnswer -->
<g id="node13" class="node"><title>UserAnswer</title>
<ellipse fill="none" stroke="black" cx="847" cy="-595" rx="70.9184" ry="18.3848"/>
<text text-anchor="middle" x="847" y="-591.4" font-family="Times Roman,serif" font-size="14.00">UserAnswer</text>
</g>
<!-- Ckeditor::Picture -->
<g id="node14" class="node"><title>Ckeditor::Picture</title>
<ellipse fill="none" stroke="black" cx="778" cy="-491" rx="92.839" ry="18.3848"/>
<text text-anchor="middle" x="778" y="-487.4" font-family="Times Roman,serif" font-size="14.00">Ckeditor::Picture</text>
</g>
<!-- Ckeditor::AttachmentFile -->
<g id="node15" class="node"><title>Ckeditor::AttachmentFile</title>
<ellipse fill="none" stroke="black" cx="1022" cy="-491" rx="132.936" ry="18.3848"/>
<text text-anchor="middle" x="1022" y="-487.4" font-family="Times Roman,serif" font-size="14.00">Ckeditor::AttachmentFile</text>
</g>
<!-- Ckeditor::Asset -->
<g id="node16" class="node"><title>Ckeditor::Asset</title>
<ellipse fill="none" stroke="black" cx="1022" cy="-595" rx="85.0596" ry="18.3848"/>
<text text-anchor="middle" x="1022" y="-591.4" font-family="Times Roman,serif" font-size="14.00">Ckeditor::Asset</text>
</g>
<!-- Ckeditor::Asset&#45;&gt;Ckeditor::Picture -->
<g id="edge60" class="edge"><title>Ckeditor::Asset&#45;&gt;Ckeditor::Picture</title>
<path fill="none" stroke="black" d="M988.948,-577.693C970.847,-568.458 947.904,-557.145 927,-548 892.872,-533.069 853.475,-518.093 823.767,-507.241"/>
</g>
<!-- Ckeditor::Asset&#45;&gt;Ckeditor::AttachmentFile -->
<g id="edge62" class="edge"><title>Ckeditor::Asset&#45;&gt;Ckeditor::AttachmentFile</title>
<path fill="none" stroke="black" d="M1022,-576.407C1022,-557.594 1022,-528.664 1022,-509.783"/>
</g>
<!-- Question&#45;&gt;UserQuestion -->
<g id="edge66" class="edge"><title>Question&#45;&gt;UserQuestion</title>
<path fill="none" stroke="#194d9b" d="M290.201,-145.303C294.255,-137.968 298.687,-129.947 302.798,-122.508"/>
<ellipse fill="none" stroke="#194d9b" cx="288.102" cy="-149.102" rx="4.00002" ry="4.00002"/>
<polygon fill="#194d9b" stroke="#194d9b" points="302.944,-122.244 311.72,-115.668 305.363,-117.868 307.781,-113.491 307.781,-113.491 307.781,-113.491 305.363,-117.868 303.842,-111.315 302.944,-122.244 302.944,-122.244"/>
</g>
<!-- Question&#45;&gt;Answer -->
<g id="edge64" class="edge"><title>Question&#45;&gt;Answer</title>
<path fill="none" stroke="#970b85" d="M234.808,-152.692C208.047,-140.799 173.285,-125.349 146.469,-113.431"/>
<ellipse fill="none" stroke="#970b85" cx="238.561" cy="-154.36" rx="4.00002" ry="4.00002"/>
<polygon fill="#970b85" stroke="#970b85" points="146.117,-113.274 138.806,-105.101 141.548,-111.244 136.979,-109.213 136.979,-109.213 136.979,-109.213 141.548,-111.244 135.151,-113.325 146.117,-113.274 146.117,-113.274"/>
</g>
<!-- StudentGroup&#45;&gt;StudentGroupCourse -->
<g id="edge70" class="edge"><title>StudentGroup&#45;&gt;StudentGroupCourse</title>
<path fill="none" stroke="#a5a50d" d="M762.483,-73.1605C777.539,-63.6255 795.228,-52.4222 810.6,-42.6868"/>
<ellipse fill="none" stroke="#a5a50d" cx="758.91" cy="-75.4238" rx="4.00002" ry="4.00002"/>
<polygon fill="#a5a50d" stroke="#a5a50d" points="810.897,-42.4986 821.753,-40.9497 815.121,-39.8233 819.345,-37.1481 819.345,-37.1481 819.345,-37.1481 815.121,-39.8233 816.937,-33.3464 810.897,-42.4986 810.897,-42.4986"/>
</g>
<!-- StudentGroup&#45;&gt;User -->
<g id="edge68" class="edge"><title>StudentGroup&#45;&gt;User</title>
<path fill="none" stroke="#cae0ed" d="M710.892,-119.955C696.088,-140.373 673.287,-169.177 649,-190 625.391,-210.242 618.066,-214.943 589,-226 538.83,-245.085 477.557,-254.623 437.02,-259.179"/>
<ellipse fill="none" stroke="#cae0ed" cx="713.27" cy="-116.629" rx="4.00002" ry="4.00002"/>
<polygon fill="#cae0ed" stroke="#cae0ed" points="436.87,-259.195 426.448,-255.784 431.898,-259.727 426.927,-260.258 426.927,-260.258 426.927,-260.258 431.898,-259.727 427.405,-264.733 436.87,-259.195 436.87,-259.195"/>
</g>
</g>
</svg>
